<svg width="11" height="11" viewBox="0 0 11 11" fill="none" xmlns="http://www.w3.org/2000/svg">
<path d="M11 3.26562V4.98438C11 5.26915 10.7692 5.5 10.4844 5.5H10.3125V9.10938C10.3125 9.39415 10.0817 9.625 9.79688 9.625H9.625V10.4844C9.625 10.7692 9.39415 11 9.10938 11H8.07812C7.79335 11 7.5625 10.7692 7.5625 10.4844V9.625H3.4375V10.4844C3.4375 10.7692 3.20665 11 2.92188 11H1.89062C1.60585 11 1.375 10.7692 1.375 10.4844V9.625H1.20312C0.91835 9.625 0.6875 9.39415 0.6875 9.10938V5.5H0.515625C0.23085 5.5 0 5.26915 0 4.98438V3.26562C0 2.98085 0.23085 2.75 0.515625 2.75H0.6875V1.71875C0.6875 0.769506 2.84212 0 5.5 0C8.15788 0 10.3125 0.769506 10.3125 1.71875V2.75H10.4844C10.7692 2.75 11 2.98085 11 3.26562ZM2.40625 6.875C1.93164 6.875 1.54688 7.25976 1.54688 7.73438C1.54688 8.20899 1.93164 8.59375 2.40625 8.59375C2.88086 8.59375 3.26562 8.20899 3.26562 7.73438C3.26562 7.25976 2.88086 6.875 2.40625 6.875ZM8.59375 6.875C8.11914 6.875 7.73438 7.25976 7.73438 7.73438C7.73438 8.20899 8.11914 8.59375 8.59375 8.59375C9.06836 8.59375 9.45312 8.20899 9.45312 7.73438C9.45312 7.25976 9.06836 6.875 8.59375 6.875ZM9.28125 5.67188V2.57812C9.28125 2.29335 9.0504 2.0625 8.76562 2.0625H2.23438C1.9496 2.0625 1.71875 2.29335 1.71875 2.57812V5.67188C1.71875 5.95665 1.9496 6.1875 2.23438 6.1875H8.76562C9.0504 6.1875 9.28125 5.95665 9.28125 5.67188Z" fill="#BB2649"/>
</svg>
