<svg width="20" height="22" viewBox="0 0 20 22" fill="none" xmlns="http://www.w3.org/2000/svg">
<path opacity="0.5" d="M19 7.50003V15.5C19 18.2614 16.7614 20.5 14 20.5H6C3.23858 20.5 1 18.2614 1 15.5V7.50003M19 7.50003C19 4.7386 16.7614 2.50003 14 2.50003H6C3.23858 2.50003 1 4.7386 1 7.50003M19 7.50003H1M14.5 1V4M5.5 1V4M4.5 11.5H5.5M9.5 11.5H10.5M14.5 11.5H15.5M4.5 15.5H5.5M9.5 15.5H10.5M14.5 15.5H15.5" stroke="#BB2649" stroke-width="1.5" stroke-linecap="round" stroke-linejoin="round"/>
</svg>
