<svg width="20" height="20" viewBox="0 0 20 20" fill="none" xmlns="http://www.w3.org/2000/svg">
<path d="M19.5196 1.07619V18.4391C19.5196 19.036 19.036 19.5153 18.4434 19.5153H13.4677V11.9601H16.0035L16.3825 9.01475H13.4633V7.13251C13.4633 6.27852 13.6986 5.69903 14.9229 5.69903H16.4828V3.06301C16.2126 3.02816 15.2889 2.94537 14.2084 2.94537C11.9601 2.94537 10.4177 4.31785 10.4177 6.84058V9.01475H7.87321V11.9601H10.4177V19.5196H1.07619C0.483634 19.5196 0 19.036 0 18.4434V1.07619C0 0.483634 0.483634 0 1.07619 0H18.4391C19.036 0 19.5196 0.483634 19.5196 1.07619Z" fill="#212121"/>
</svg>
