<svg width="134" height="35" viewBox="0 0 134 35" fill="none" xmlns="http://www.w3.org/2000/svg">
<g clip-path="url(#clip0_162_4251)">
<path d="M56.0147 34.9312H54.5493V28.2152H51.5162V27.0308H59.0581V28.2152H56.0147V34.9312Z" fill="#FF8000"/>
<path d="M58.9021 34.9315V31.2074C58.9021 30.4172 59.1013 29.8417 59.491 29.4809C59.879 29.1307 60.4801 28.9512 61.2804 28.9512H62.1586V29.9667H61.6147C61.1037 29.9667 60.7365 30.0916 60.5251 30.3503C60.3138 30.609 60.203 31.005 60.203 31.5576V34.9332H58.9038L58.9021 34.9315Z" fill="#FF8000"/>
<path d="M62.7007 28.9491H66.0438C66.5877 28.9491 67 29.1075 67.2771 29.4348C67.5543 29.7622 67.6998 30.1793 67.6998 30.7108V33.9157C67.6998 34.5932 67.3672 34.9312 66.7003 34.9312H63.7348C62.7579 34.9312 62.2677 34.3099 62.2677 33.0691C62.2677 32.4936 62.3907 32.0308 62.6349 31.7034C62.8792 31.3761 63.2464 31.2071 63.7348 31.2071H66.4006V30.8234C66.4006 30.2479 66.1235 29.9663 65.5779 29.9663H62.7007V28.9509V28.9491ZM66.4006 32.2226H64.2337C63.8232 32.2226 63.6119 32.5042 63.6119 33.0691C63.6119 33.6341 63.8232 33.9157 64.2337 33.9157H66.0663C66.288 33.9157 66.3989 33.803 66.3989 33.5778V32.2226H66.4006ZM69.399 28.9491L71.055 33.3842C71.1104 33.5426 71.1658 33.6218 71.2108 33.6218C71.2559 33.6218 71.3113 33.5426 71.3667 33.3842L73.0106 28.9491H74.3547L72.1116 34.4683C72.0457 34.6372 71.9557 34.7622 71.8448 34.8414C71.734 34.9206 71.6335 34.9769 71.5555 34.9875C71.4776 34.998 71.3563 34.998 71.2108 34.998C71.0653 34.998 70.9441 34.998 70.8661 34.9875C70.7882 34.9769 70.6877 34.9206 70.5769 34.8414C70.4539 34.7622 70.3656 34.639 70.2997 34.4683L68.0566 28.9491H69.4007H69.399ZM80.0189 34.9312H76.752C76.2965 34.9312 75.9189 34.8643 75.6192 34.7393C75.3195 34.6144 75.0857 34.412 74.9298 34.1304C74.7739 33.8593 74.6734 33.5549 74.618 33.217C74.5626 32.8791 74.5297 32.4496 74.5297 31.9304C74.5297 30.7671 74.7514 29.9787 75.1844 29.5369C75.6175 29.0952 76.3398 28.8822 77.3721 28.8822C78.2937 28.8822 78.9934 29.0512 79.4836 29.3908C79.9617 29.7411 80.206 30.3623 80.206 31.2529C80.206 32.0096 79.9063 32.381 79.2948 32.381H75.8738C75.8738 32.9002 75.9622 33.2838 76.1302 33.532C76.2965 33.7925 76.6308 33.9157 77.1418 33.9157H80.0189V34.9312ZM75.8756 31.3637H78.5743C78.7631 31.3637 78.8635 31.2511 78.8635 31.0135C78.8635 30.6404 78.7198 30.3694 78.4409 30.1775C78.1516 29.9857 77.7965 29.896 77.3739 29.896C76.83 29.896 76.4402 30.0086 76.2185 30.2339C75.9847 30.4715 75.8738 30.8428 75.8738 31.362L75.8756 31.3637ZM81.0513 34.9312V27.0308H82.3504V34.9312H81.0513Z" fill="#FF8000"/>
<path d="M84.1986 22.4289L90.7462 6.57888C91.0597 5.8221 91.42 5.30292 91.8253 5.01605C92.2306 4.73093 92.8213 4.58838 93.599 4.58838C94.3768 4.58838 94.9259 4.73621 95.3468 5.03012C95.7677 5.32404 96.1367 5.84146 96.4502 6.58064L102.998 22.4307H99.5507L97.7649 17.971H89.4072L87.6456 22.4307H84.1986V22.4289ZM93.1019 8.41802L90.2491 15.6003H96.9213L94.0944 8.41802C93.9126 7.93051 93.748 7.68764 93.599 7.68764C93.4501 7.68764 93.2855 7.93051 93.1037 8.41802H93.1019ZM103.666 22.4289V20.1604H111.058C111.388 20.1604 111.674 20.06 111.913 19.8577C112.152 19.6553 112.273 19.3543 112.273 18.9513C112.273 18.682 112.223 18.4515 112.125 18.2579C112.026 18.0643 111.859 17.9059 111.629 17.7792C111.397 17.6524 111.2 17.5609 111.033 17.5028C110.869 17.4448 110.604 17.3691 110.24 17.2758C109.876 17.1825 109.637 17.1209 109.521 17.0875L106.992 16.3818C105.636 16.0122 104.714 15.5299 104.228 14.9333C103.739 14.3367 103.497 13.5271 103.497 12.5011C103.497 11.292 103.795 10.4173 104.389 9.88053C104.985 9.34375 105.942 9.07448 107.266 9.07448H113.569C114.182 9.07448 114.681 9.5831 114.681 10.2044V10.2114C114.681 10.8344 114.181 11.3413 113.569 11.3413H107.713C107.217 11.3413 106.86 11.4258 106.646 11.593C106.431 11.7602 106.324 12.0805 106.324 12.5504C106.324 12.9024 106.443 13.2015 106.684 13.4444C106.923 13.6873 107.155 13.851 107.378 13.9354C107.602 14.0199 107.936 14.129 108.383 14.2628L111.21 15.0688C111.788 15.236 112.235 15.3751 112.549 15.4842C112.862 15.5933 113.223 15.7535 113.628 15.9629C114.033 16.1723 114.338 16.4046 114.546 16.6563C114.752 16.908 114.931 17.2353 115.08 17.6384C115.229 18.0414 115.303 18.5043 115.303 19.0234C115.303 20.1322 115.064 20.977 114.584 21.556C114.104 22.135 113.269 22.4254 112.079 22.4254H103.672L103.666 22.4289ZM122.838 9.07448H130.304C131.511 9.07448 132.429 9.43526 133.056 10.1586C133.685 10.8802 133.998 11.8305 133.998 13.0062V20.1621C133.998 21.6739 133.253 22.4307 131.765 22.4307H125.143C122.961 22.4307 121.87 21.0439 121.87 18.2737C121.87 16.9801 122.143 15.9647 122.687 15.2255C123.233 14.4863 124.052 14.1167 125.142 14.1167H131.093V13.2596C131.093 11.9837 130.482 11.3448 129.257 11.3448H122.834V9.07624L122.838 9.07448ZM131.097 16.3818H126.261C125.334 16.3818 124.871 17.0118 124.871 18.2719C124.871 19.5321 125.334 20.1621 126.261 20.1621H130.352C130.847 20.1621 131.097 19.9104 131.097 19.4053V16.3818ZM117.084 22.4289V9.07272H119.985V22.4272H117.084V22.4289Z" fill="#BB2649"/>
<path d="M74.7635 22.4285H77.6961V16.3057H77.9871L78.3491 15.9326L77.9871 15.556H77.6892L77.6788 12.6256H77.7567L78.0685 12.286L77.7567 11.9762H77.6632L77.6095 4.85901H77.755L78.0339 4.57214L77.7758 4.30111L77.8502 3.96144L77.8364 3.79777C77.8364 3.72033 77.8364 3.4317 77.4951 3.15187C77.1418 2.8474 76.9512 2.72948 76.785 2.54997L76.8387 2.51829L76.6845 2.42677L76.3831 2.07302L76.3571 1.81079L76.5251 1.69639L76.3467 1.57144L76.3207 1.34792L76.3935 1.28457L76.3207 1.23001L76.3069 1.06985L76.3017 0.995935L76.3571 0.944897L76.2896 0.906178L76.267 0.51899L76.2341 0.482031L76.2601 0.460912L76.248 0.443313L76.2601 0.409874L76.2341 -0.00195312L76.1908 0.409874L76.2168 0.452112L76.1908 0.460912L76.2168 0.482031L76.1908 0.51899L76.1666 0.906178L76.106 0.944897L76.1666 0.988895L76.151 1.06985L76.1423 1.24585L76.0575 1.28457L76.1302 1.34792L76.1163 1.52744L75.9379 1.69639L76.106 1.85303L76.08 2.07302L75.7734 2.43909L75.6209 2.51829L75.6781 2.54997C75.5066 2.72948 75.3247 2.8474 74.9731 3.15187C74.6267 3.4317 74.6267 3.72033 74.6267 3.79777L74.6128 3.96144L74.6856 4.30111L74.4223 4.57214L74.7046 4.85901H74.8397L74.7982 11.9762H74.7064L74.3911 12.286L74.7064 12.6256H74.7982L74.7687 15.556H74.4846L74.107 15.9326L74.4846 16.3057H74.7687L74.7653 22.4285H74.7635ZM14.609 22.4285H7.36686C5.92917 22.4285 4.71319 22.2138 3.72066 21.7862C2.72813 21.3585 1.96771 20.7284 1.4394 19.896C0.911094 19.0653 0.538679 18.1448 0.323891 17.1364C0.109103 16.1279 0.00170898 14.9523 0.00170898 13.6077C0.00170898 12.2631 0.109103 11.0875 0.323891 10.0808C0.538679 9.07232 0.911094 8.15363 1.4394 7.32117C1.96771 6.48872 2.72986 5.86042 3.72066 5.43099C4.71319 5.00333 5.92743 4.78861 7.36686 4.78861H14.3353V7.43381H8.90329C6.78659 7.43381 5.33677 7.86676 4.55036 8.73089C3.7657 9.59678 3.3725 11.2212 3.3725 13.6077C3.3725 15.9942 3.7657 17.6186 4.55036 18.4845C5.33503 19.3504 6.78659 19.7816 8.90329 19.7816H14.6073V22.4268L14.609 22.4285ZM27.8531 22.4285H20.5625C19.537 22.4285 18.69 22.286 18.0197 22.0009C17.3493 21.7158 16.8418 21.2652 16.4936 20.6527C16.1472 20.0403 15.9116 19.3557 15.7869 18.5989C15.6622 17.8421 15.6016 16.8847 15.6016 15.7267C15.6016 13.1395 16.0848 11.3585 17.0531 10.3852C18.0197 9.41023 19.6531 8.92448 21.9517 8.92448C24.0025 8.92448 25.5684 9.30639 26.651 10.0702C27.7336 10.834 28.2758 12.2156 28.2758 14.2149C28.2758 15.8956 27.5985 16.7351 26.2422 16.7351H18.6034C18.6034 17.8949 18.7887 18.7555 19.1611 19.3187C19.5336 19.8819 20.2888 20.1635 21.4303 20.1635H27.8531V22.4321V22.4285ZM18.6017 14.4665H24.6278C25.0574 14.4665 25.2722 14.2061 25.2722 13.6851C25.2722 12.8615 24.9535 12.2402 24.3178 11.8196C23.6821 11.399 22.8922 11.1895 21.9499 11.1895C20.727 11.1895 19.8627 11.4465 19.3586 11.9586C18.8546 12.4708 18.6017 13.3067 18.6017 14.4665ZM30.1586 22.4285V11.3409C30.1586 9.82909 30.9035 9.07232 32.3914 9.07232H37.0041C38.6237 9.07232 39.8813 9.41727 40.7733 10.1054C41.6654 10.7935 42.1123 11.9709 42.1123 13.6341V22.4285H39.2109V14.4155C39.2109 13.3736 38.9961 12.601 38.5666 12.0977C38.137 11.5943 37.4337 11.3409 36.4585 11.3409H33.8048C33.3094 11.3409 33.06 11.5926 33.06 12.0977V22.4285H30.1586ZM47.4491 5.35884C47.5166 5.35884 47.5721 5.67035 47.5859 6.07865H47.3105C47.3244 5.67211 47.3798 5.35884 47.4473 5.35884H47.4491ZM46.9034 4.99629C47.0351 4.99629 47.1373 5.46795 47.1546 6.07689H46.6523C46.6696 5.46795 46.7735 4.99629 46.9034 4.99629ZM46.1257 4.99629C46.2574 4.99629 46.3578 5.46795 46.3751 6.07689H45.8745C45.8953 5.46795 45.9941 4.99629 46.1274 4.99629H46.1257ZM45.4432 6.07689C45.4571 5.67035 45.5108 5.35708 45.5801 5.35708C45.6494 5.35708 45.7013 5.66859 45.7152 6.07689H45.4415H45.4432ZM45.6823 7.01494H47.3486C47.6396 6.72807 47.9601 6.69991 47.9601 6.69991L47.9358 6.07513H47.6535V4.72174C47.941 4.6795 48.1298 4.6267 48.1298 4.6267C48.1298 4.6267 48.0051 4.59502 47.8076 4.55806L47.7349 4.11456H47.5859C47.4577 3.78017 47.1841 3.56545 46.9883 3.45458L47.1182 3.42114L46.9329 3.3613L46.7354 3.34194L46.6609 3.3261L46.6246 2.78932L46.7008 2.54293L46.5865 2.26133L46.6644 2.14166L46.5709 2.02022L46.5224 1.37432L46.5137 1.50632L46.5051 1.37432L46.4583 2.02022L46.3613 2.14166L46.441 2.25957L46.3266 2.54293L46.4011 2.78932L46.3647 3.3261L46.2903 3.34194L46.0928 3.3613L45.9092 3.42114L46.0391 3.45458C45.8434 3.56545 45.5697 3.78017 45.445 4.11456H45.2925L45.2232 4.55806C45.0223 4.59502 44.8976 4.6267 44.8976 4.6267C44.8976 4.6267 45.0864 4.6795 45.3722 4.72174V6.07513H45.0933L45.0639 6.69991C45.0639 6.69991 45.3861 6.72807 45.6788 7.01494H45.6823ZM51.7102 22.4268H49.9001C48.329 22.4268 47.1304 22.0906 46.3041 21.4183C45.4779 20.746 45.0639 19.6285 45.0639 18.0674V11.3391H43.2538V9.07056H45.0639V7.01494H47.9653V9.07056H51.7102V11.3391H47.9653V17.462C47.9653 18.437 48.213 19.1286 48.7101 19.5405C49.2055 19.9523 49.9659 20.1582 50.9913 20.1582H51.7102V22.4268ZM52.8517 22.4268V14.111C52.8517 12.3476 53.2899 11.0663 54.1664 10.2673C55.0429 9.47006 56.3732 9.07056 58.159 9.07056H60.1181V11.3391H58.9021C57.7606 11.3391 56.9517 11.6242 56.4719 12.1962C55.9921 12.7682 55.7531 13.6658 55.7531 14.8925V22.4268H52.8517ZM61.3341 9.07232H68.7997C70.007 9.07232 70.9251 9.43311 71.5521 10.1564C72.1809 10.878 72.4944 11.8284 72.4944 13.004V20.16C72.4944 21.6718 71.7496 22.4285 70.2616 22.4285H63.6396C61.4571 22.4285 60.3658 21.0417 60.3658 18.2715C60.3658 16.978 60.6378 15.9625 61.1834 15.2233C61.729 14.4841 62.5466 14.1146 63.6379 14.1146H69.5896V13.2575C69.5896 11.9815 68.9781 11.3426 67.7535 11.3426H61.3306V9.07408L61.3341 9.07232ZM69.593 16.3796H64.7568C63.8301 16.3796 63.3676 17.0097 63.3676 18.2698C63.3676 19.5299 63.8301 20.16 64.7568 20.16H68.8482C69.3436 20.16 69.593 19.9083 69.593 19.4032V16.3796Z" fill="#BB2649"/>
<path fill-rule="evenodd" clip-rule="evenodd" d="M118.537 4.47363C119.339 4.47363 119.989 5.13361 119.989 5.94847C119.989 6.76332 119.339 7.4233 118.537 7.4233C117.735 7.4233 117.085 6.76332 117.085 5.94847C117.085 5.13361 117.735 4.47363 118.537 4.47363Z" fill="#FF8000"/>
</g>
<defs>
<clipPath id="clip0_162_4251">
<rect width="134" height="35" fill="white"/>
</clipPath>
</defs>
</svg>
