<svg width="30" height="30" viewBox="0 0 30 30" fill="none" xmlns="http://www.w3.org/2000/svg">
<circle cx="15" cy="15" r="15" fill="white"/>
<path d="M15 22.5C14.8598 22.4997 14.7197 22.4905 14.5806 22.4725C13.2962 20.4143 12.585 18.0503 12.5206 15.625H23.7188C23.7338 15.4175 23.75 15.2106 23.75 15C23.75 13.2694 23.2368 11.5777 22.2754 10.1388C21.3139 8.69983 19.9473 7.57832 18.3485 6.91606C16.7496 6.25379 14.9903 6.08051 13.293 6.41813C11.5956 6.75575 10.0365 7.58911 8.81282 8.81282C7.58911 10.0365 6.75575 11.5956 6.41813 13.293C6.08051 14.9903 6.25379 16.7496 6.91606 18.3485C7.57832 19.9473 8.69983 21.3139 10.1388 22.2754C11.5777 23.2368 13.2694 23.75 15 23.75V22.5ZM22.4688 14.375H18.7269C18.6597 12.0752 18.0713 9.82066 17.0063 7.78125C18.4803 8.19258 19.7934 9.04456 20.7697 10.223C21.746 11.4015 22.3388 12.8502 22.4688 14.375ZM15.4188 7.5275C16.7034 9.58564 17.4149 11.9497 17.4794 14.375H12.5206C12.5852 11.9497 13.2966 9.58564 14.5813 7.5275C14.8596 7.49099 15.1416 7.49099 15.42 7.5275H15.4188ZM12.9931 7.78063C11.9282 9.8203 11.3401 12.0751 11.2731 14.375H7.53125C7.66129 12.8502 8.25415 11.4016 9.23042 10.2231C10.2067 9.04466 11.5198 8.19266 12.9938 7.78125L12.9931 7.78063ZM7.53125 15.625H11.2731C11.3404 17.9248 11.9287 20.1793 12.9938 22.2188C11.5198 21.8073 10.2067 20.9553 9.23042 19.7769C8.25415 18.5984 7.66129 17.1498 7.53125 15.625Z" fill="#BB2649"/>
<path fill-rule="evenodd" clip-rule="evenodd" d="M20.625 20.625L23.75 21.875V20.625L20.625 19.0625V17.5C20.625 17.3342 20.5592 17.1753 20.4419 17.0581C20.3247 16.9408 20.1658 16.875 20 16.875C19.8342 16.875 19.6753 16.9408 19.5581 17.0581C19.4408 17.1753 19.375 17.3342 19.375 17.5V19.0625L16.25 20.625V21.875L19.375 20.625V22.8125L18.125 23.75V24.375L20 23.75L21.875 24.375V23.75L20.625 22.8125V20.625Z" fill="#BB2649"/>
</svg>
