<svg width="30" height="30" viewBox="0 0 30 30" fill="none" xmlns="http://www.w3.org/2000/svg">
<circle cx="15" cy="15" r="15" fill="white"/>
<path d="M15 18.5938C15.9531 18.5938 16.8672 18.2151 17.5412 17.5412C18.2151 16.8672 18.5938 15.9531 18.5938 15V10C18.5938 9.04688 18.2151 8.13279 17.5412 7.45883C16.8672 6.78488 15.9531 6.40625 15 6.40625C14.0469 6.40625 13.1328 6.78488 12.4588 7.45883C11.7849 8.13279 11.4063 9.04688 11.4063 10V15C11.4063 15.9531 11.7849 16.8672 12.4588 17.5412C13.1328 18.2151 14.0469 18.5938 15 18.5938ZM12.3438 10C12.3438 9.29552 12.6236 8.61989 13.1217 8.12175C13.6199 7.6236 14.2955 7.34375 15 7.34375C15.7045 7.34375 16.3801 7.6236 16.8783 8.12175C17.3764 8.61989 17.6563 9.29552 17.6563 10V15C17.6563 15.7045 17.3764 16.3801 16.8783 16.8783C16.3801 17.3764 15.7045 17.6562 15 17.6562C14.2955 17.6562 13.6199 17.3764 13.1217 16.8783C12.6236 16.3801 12.3438 15.7045 12.3438 15V10ZM21.0547 15.6797C20.8986 17.0894 20.255 18.4004 19.2351 19.3861C18.2152 20.3717 16.883 20.9702 15.4688 21.0781V23.125C15.4688 23.2493 15.4194 23.3685 15.3315 23.4565C15.2436 23.5444 15.1243 23.5938 15 23.5938C14.8757 23.5938 14.7565 23.5444 14.6685 23.4565C14.5806 23.3685 14.5313 23.2493 14.5313 23.125V21.0781C13.117 20.9702 11.7848 20.3717 10.7649 19.3861C9.74503 18.4004 9.10143 17.0894 8.94531 15.6797C8.93442 15.6169 8.93644 15.5526 8.95125 15.4906C8.96606 15.4286 8.99335 15.3703 9.03145 15.3193C9.06955 15.2682 9.11766 15.2254 9.17284 15.1936C9.22802 15.1617 9.28912 15.1415 9.3524 15.134C9.41567 15.1266 9.47981 15.1321 9.54087 15.1503C9.60194 15.1685 9.65866 15.1989 9.70757 15.2397C9.75648 15.2806 9.79655 15.3309 9.82534 15.3878C9.85413 15.4446 9.87103 15.5067 9.875 15.5703C10.0145 16.832 10.6146 17.9979 11.5602 18.8447C12.5059 19.6915 13.7306 20.1597 15 20.1597C16.2694 20.1597 17.4942 19.6915 18.4398 18.8447C19.3854 17.9979 19.9855 16.832 20.125 15.5703C20.129 15.5067 20.1459 15.4446 20.1747 15.3878C20.2034 15.3309 20.2435 15.2806 20.2924 15.2397C20.3413 15.1989 20.3981 15.1685 20.4591 15.1503C20.5202 15.1321 20.5843 15.1266 20.6476 15.134C20.7109 15.1415 20.772 15.1617 20.8272 15.1936C20.8823 15.2254 20.9305 15.2682 20.9686 15.3193C21.0067 15.3703 21.0339 15.4286 21.0487 15.4906C21.0636 15.5526 21.0656 15.6169 21.0547 15.6797Z" fill="#BB2649"/>
</svg>
