<svg width="30" height="30" viewBox="0 0 30 30" fill="none" xmlns="http://www.w3.org/2000/svg">
<circle cx="15" cy="15" r="15" fill="white"/>
<path d="M17.5 17.25H13.75C13.2527 17.25 12.7758 17.4475 12.4242 17.7992C12.0725 18.1508 11.875 18.6277 11.875 19.125V20.375H13.125V19.125C13.125 18.9592 13.1908 18.8003 13.3081 18.6831C13.4253 18.5658 13.5842 18.5 13.75 18.5H17.5C17.6658 18.5 17.8247 18.5658 17.9419 18.6831C18.0592 18.8003 18.125 18.9592 18.125 19.125V20.375H19.375V19.125C19.375 18.6277 19.1775 18.1508 18.8258 17.7992C18.4742 17.4475 17.9973 17.25 17.5 17.25ZM15.625 16.625C16.288 16.625 16.9239 16.3616 17.3928 15.8928C17.8616 15.4239 18.125 14.788 18.125 14.125C18.125 13.462 17.8616 12.8261 17.3928 12.3572C16.9239 11.8884 16.288 11.625 15.625 11.625C14.962 11.625 14.3261 11.8884 13.8572 12.3572C13.3884 12.8261 13.125 13.462 13.125 14.125C13.125 14.788 13.3884 15.4239 13.8572 15.8928C14.3261 16.3616 14.962 16.625 15.625 16.625ZM15.625 12.875C15.9565 12.875 16.2745 13.0067 16.5089 13.2411C16.7433 13.4755 16.875 13.7935 16.875 14.125C16.875 14.4565 16.7433 14.7745 16.5089 15.0089C16.2745 15.2433 15.9565 15.375 15.625 15.375C15.2935 15.375 14.9755 15.2433 14.7411 15.0089C14.5067 14.7745 14.375 14.4565 14.375 14.125C14.375 13.7935 14.5067 13.4755 14.7411 13.2411C14.9755 13.0067 15.2935 12.875 15.625 12.875Z" fill="#BB2649"/>
<path d="M15.625 24.75C10.8 24.75 6.875 20.825 6.875 16H8.125C8.125 20.1356 11.4894 23.5 15.625 23.5C18.8912 23.5 21.76 21.4137 22.7631 18.3081L23.9531 18.6919C23.3872 20.4546 22.2752 21.9916 20.7781 23.0806C19.281 24.1696 17.4763 24.7543 15.625 24.75ZM24.375 16H23.125C23.125 11.8644 19.7606 8.5 15.625 8.5V7.25C20.45 7.25 24.375 11.175 24.375 16ZM8.75 14.75L7.41313 14.1169C6.87916 13.8623 6.42799 13.4621 6.11162 12.9623C5.79525 12.4625 5.62656 11.8834 5.625 11.2919V7.25H11.875V11.2925C11.8735 11.884 11.7049 12.4631 11.3885 12.963C11.0721 13.4628 10.6209 13.863 10.0869 14.1175L8.75 14.75ZM6.875 8.5V11.2925C6.87596 11.6473 6.97722 11.9946 7.1671 12.2943C7.35698 12.594 7.62774 12.8338 7.94812 12.9862L8.75 13.3669L9.55188 12.9875C9.87236 12.8349 10.1432 12.5948 10.333 12.2949C10.5229 11.9949 10.6241 11.6475 10.625 11.2925V8.5H6.875Z" fill="#BB2649"/>
</svg>
