<svg width="30" height="30" viewBox="0 0 30 30" fill="none" xmlns="http://www.w3.org/2000/svg">
<circle cx="15" cy="15" r="15" fill="white"/>
<path d="M18.4375 17.1875C18.7827 17.1875 19.0625 17.4673 19.0625 17.8125C19.0625 18.7242 18.7003 19.5985 18.0557 20.2432C17.411 20.8878 16.5367 21.25 15.625 21.25C15.2798 21.25 15 20.9702 15 20.625C15 20.2798 15.2798 20 15.625 20C16.2052 20 16.7616 19.7695 17.1718 19.3593C17.582 18.9491 17.8125 18.3927 17.8125 17.8125C17.8125 17.4673 18.0923 17.1875 18.4375 17.1875Z" fill="#BB2649"/>
<path fill-rule="evenodd" clip-rule="evenodd" d="M15.0002 6.55957C14.8423 6.55957 14.6863 6.59375 14.5429 6.65975C14.3995 6.72575 14.2721 6.82202 14.1694 6.94193C13.5409 7.677 12.2 9.31712 11.0132 11.2506C9.84256 13.1575 8.75 15.462 8.75 17.5C8.75 19.3589 9.33779 20.9356 10.4511 22.0489C11.5644 23.1622 13.1411 23.75 15 23.75C16.8589 23.75 18.4356 23.1622 19.5489 22.0489C20.6622 20.9356 21.25 19.3589 21.25 17.5C21.25 15.462 20.1574 13.1575 18.9869 11.2506C17.8001 9.31713 16.4596 7.67738 15.8314 6.94236C15.7287 6.82245 15.6009 6.72575 15.4575 6.65975C15.3141 6.59375 15.1581 6.55957 15.0002 6.55957ZM12.0784 11.9045C13.1474 10.1632 14.3534 8.66061 15.0002 7.89466C15.6469 8.66067 16.8527 10.1633 17.9216 11.9045C19.0763 13.7857 20 15.8337 20 17.5C20 19.093 19.5013 20.3288 18.665 21.165C17.8288 22.0013 16.593 22.5 15 22.5C13.407 22.5 12.1712 22.0013 11.335 21.165C10.4987 20.3288 10 19.093 10 17.5C10 15.8337 10.9237 13.7857 12.0784 11.9045Z" fill="#BB2649"/>
</svg>
