<svg width="30" height="30" viewBox="0 0 30 30" fill="none" xmlns="http://www.w3.org/2000/svg">
<circle cx="15" cy="15" r="15" fill="white"/>
<path fill-rule="evenodd" clip-rule="evenodd" d="M14.4056 6.20433C14.5927 5.62851 15.4073 5.62851 15.5944 6.20433L17.2451 11.2847C17.3288 11.5423 17.5688 11.7166 17.8396 11.7166L23.1814 11.7166C23.7869 11.7166 24.0386 12.4914 23.5488 12.8472L19.2271 15.9871C19.0081 16.1463 18.9164 16.4284 19.0001 16.6859L20.6508 21.7663C20.8379 22.3421 20.1789 22.821 19.689 22.4651L15.3674 19.3252C15.1483 19.1661 14.8517 19.1661 14.6326 19.3252L10.311 22.4651C9.82115 22.821 9.1621 22.3421 9.3492 21.7663L10.9999 16.6859C11.0836 16.4284 10.9919 16.1463 10.7729 15.9871L6.45122 12.8472C5.96139 12.4914 6.21313 11.7166 6.81858 11.7166L12.1605 11.7166C12.4312 11.7166 12.6712 11.5423 12.7549 11.2847L14.4056 6.20433ZM13.9437 11.671L15 8.42L16.0563 11.671C16.3073 12.4436 17.0273 12.9666 17.8396 12.9666L21.2579 12.9666L18.4924 14.9759C17.8352 15.4533 17.5602 16.2996 17.8113 17.0722L18.8676 20.3232L16.1021 18.3139C15.4449 17.8365 14.5551 17.8365 13.8979 18.3139L11.1324 20.3232L12.1887 17.0722C12.4398 16.2996 12.1648 15.4533 11.5076 14.9759L8.74213 12.9666L12.1605 12.9666C12.9728 12.9666 13.6927 12.4436 13.9437 11.671Z" fill="#BB2649"/>
</svg>
