<svg width="30" height="30" viewBox="0 0 30 30" fill="none" xmlns="http://www.w3.org/2000/svg">
<circle cx="15" cy="15" r="15" fill="white"/>
<path d="M14.5 7.99995C14.617 7.99991 14.7304 8.04092 14.8203 8.11583C14.9102 8.19075 14.9709 8.29483 14.992 8.40995L15 8.49995V11.4999C15.0001 12.0763 14.8011 12.6349 14.4367 13.0814C14.0722 13.5279 13.5647 13.8347 13 13.9499V21.4999C13.0002 21.6249 12.9537 21.7454 12.8695 21.8377C12.7853 21.9301 12.6696 21.9875 12.5452 21.9988C12.4207 22.0101 12.2966 21.9744 12.1972 21.8987C12.0977 21.8231 12.0303 21.7129 12.008 21.5899L12 21.4999V13.9499C11.4642 13.8404 10.979 13.5581 10.6189 13.1465C10.2587 12.7349 10.0435 12.2166 10.006 11.6709L10 11.4999V8.49995C9.99977 8.375 10.0463 8.25449 10.1305 8.16216C10.2147 8.06983 10.3304 8.01236 10.4548 8.00107C10.5793 7.98978 10.7034 8.02549 10.8028 8.10116C10.9023 8.17684 10.9697 8.287 10.992 8.40995L11 8.49995V11.4999C10.9998 11.8103 11.0959 12.113 11.275 12.3664C11.4541 12.6199 11.7074 12.8115 12 12.9149V8.49995C11.9998 8.375 12.0463 8.25449 12.1305 8.16216C12.2147 8.06983 12.3304 8.01236 12.4548 8.00107C12.5793 7.98978 12.7034 8.02549 12.8028 8.10116C12.9023 8.17684 12.9697 8.287 12.992 8.40995L13 8.49995V12.9139C13.538 12.7239 13.935 12.2359 13.993 11.6489L14 11.4999V8.49995C14 8.36734 14.0527 8.24016 14.1464 8.14639C14.2402 8.05262 14.3674 7.99995 14.5 7.99995ZM19.5 7.99995C19.617 7.99991 19.7304 8.04092 19.8203 8.11583C19.9102 8.19075 19.9709 8.29483 19.992 8.40995L20 8.49995V21.4999C20.0002 21.6249 19.9537 21.7454 19.8695 21.8377C19.7853 21.9301 19.6696 21.9875 19.5452 21.9988C19.4207 22.0101 19.2966 21.9744 19.1972 21.8987C19.0977 21.8231 19.0303 21.7129 19.008 21.5899L19 21.4999V15.9999H17.5C17.383 16 17.2696 15.959 17.1797 15.8841C17.0898 15.8091 17.0291 15.7051 17.008 15.5899L17 15.4999V10.4999C17 9.8369 17.2634 9.20102 17.7322 8.73218C18.2011 8.26334 18.837 7.99995 19.5 7.99995ZM19 14.9999V9.08495C18.462 9.27495 18.065 9.76295 18.007 10.3509L18 10.4999V14.9999H19Z" fill="#BB2649"/>
</svg>
