<svg width="21" height="20" viewBox="0 0 21 20" fill="none" xmlns="http://www.w3.org/2000/svg">
<path d="M10.6244 4.75523C7.85424 4.75523 5.61981 6.98965 5.61981 9.75981C5.61981 12.53 7.85424 14.7644 10.6244 14.7644C13.3946 14.7644 15.629 12.53 15.629 9.75981C15.629 6.98965 13.3946 4.75523 10.6244 4.75523ZM10.6244 13.0134C8.83425 13.0134 7.37076 11.5543 7.37076 9.75981C7.37076 7.9653 8.82989 6.50618 10.6244 6.50618C12.4189 6.50618 13.878 7.9653 13.878 9.75981C13.878 11.5543 12.4145 13.0134 10.6244 13.0134ZM17.001 4.55051C17.001 5.1995 16.4783 5.71782 15.8337 5.71782C15.1847 5.71782 14.6664 5.19514 14.6664 4.55051C14.6664 3.90589 15.1891 3.38321 15.8337 3.38321C16.4783 3.38321 17.001 3.90589 17.001 4.55051ZM20.3156 5.73524C20.2416 4.17158 19.8844 2.7865 18.7389 1.64533C17.5977 0.504161 16.2126 0.147002 14.649 0.0686008C13.0374 -0.0228668 8.20704 -0.0228668 6.59547 0.0686008C5.03616 0.142646 3.65108 0.499805 2.50556 1.64097C1.36003 2.78214 1.00723 4.16722 0.92883 5.73088C0.837363 7.34245 0.837363 12.1728 0.92883 13.7844C1.00288 15.348 1.36003 16.7331 2.50556 17.8743C3.65108 19.0155 5.03181 19.3726 6.59547 19.451C8.20704 19.5425 13.0374 19.5425 14.649 19.451C16.2126 19.377 17.5977 19.0198 18.7389 17.8743C19.88 16.7331 20.2372 15.348 20.3156 13.7844C20.4071 12.1728 20.4071 7.34681 20.3156 5.73524ZM18.2336 15.5136C17.8939 16.3673 17.2362 17.025 16.3781 17.369C15.0932 17.8787 12.0443 17.7611 10.6244 17.7611C9.20447 17.7611 6.1512 17.8743 4.87065 17.369C4.01695 17.0293 3.35926 16.3716 3.01516 15.5136C2.50556 14.2287 2.62316 11.1797 2.62316 9.75981C2.62316 8.33989 2.50991 5.28661 3.01516 4.00606C3.3549 3.15237 4.0126 2.49467 4.87065 2.15058C6.15555 1.64097 9.20447 1.75857 10.6244 1.75857C12.0443 1.75857 15.0976 1.64533 16.3781 2.15058C17.2318 2.49031 17.8895 3.14801 18.2336 4.00606C18.7432 5.29097 18.6256 8.33989 18.6256 9.75981C18.6256 11.1797 18.7432 14.233 18.2336 15.5136Z" fill="#212121"/>
</svg>
