<svg width="43" height="36" viewBox="0 0 43 36" fill="none" xmlns="http://www.w3.org/2000/svg">
<path fill-rule="evenodd" clip-rule="evenodd" d="M0 9.77143C0 4.37482 4.25329 0 9.5 0H33.5C38.7467 0 43 4.37482 43 9.77143V12.2874C43 13.4509 42.2114 14.2929 41.3584 14.5954C39.9839 15.0828 39 16.4252 39 18C39 19.5748 39.984 20.9172 41.3584 21.4046C42.2114 21.7071 43 22.5491 43 23.7126V26.2286C43 31.6252 38.7467 36 33.5 36H9.5C4.25329 36 0 31.6252 0 26.2286V23.7126C0 22.5491 0.788562 21.7071 1.64157 21.4046C3.01605 20.9172 4 19.5748 4 18C4 16.4252 3.01605 15.0828 1.64157 14.5954C0.788563 14.2929 0 13.4509 0 12.2874V9.77143ZM22.298 10.8582C21.8979 10.3133 21.1021 10.3133 20.702 10.8582L18.7211 13.5561C18.6015 13.719 18.4374 13.8417 18.2497 13.9084L15.143 15.0125C14.5156 15.2355 14.2697 16.0139 14.6499 16.5737L16.5323 19.3451C16.646 19.5125 16.7086 19.711 16.7123 19.9152L16.7732 23.2954C16.7855 23.9781 17.4293 24.4592 18.0644 24.2603L21.2087 23.2753C21.3986 23.2158 21.6014 23.2158 21.7913 23.2753L24.9356 24.2603C25.5707 24.4592 26.2145 23.9781 26.2268 23.2954L26.2877 19.9152C26.2914 19.711 26.354 19.5125 26.4677 19.3451L28.3501 16.5737C28.7303 16.0139 28.4844 15.2355 27.857 15.0125L24.7503 13.9084C24.5626 13.8417 24.3985 13.719 24.2789 13.5561L22.298 10.8582Z" fill="#BB2649"/>
</svg>
