<svg width="270" height="75" viewBox="0 0 270 75" fill="none" xmlns="http://www.w3.org/2000/svg">
<g clip-path="url(#clip0_152_1176)">
<path d="M190.613 60.5667V40.6001H193.969V60.5667H190.613ZM177.249 51.5545H184.218C184.714 51.5545 184.964 51.261 184.964 50.6714C184.964 49.7403 184.596 49.036 183.858 48.5611C183.123 48.0862 182.209 47.8488 181.12 47.8488C179.706 47.8488 178.705 48.1396 178.123 48.7185C177.541 49.2975 177.249 50.2446 177.249 51.5572V51.5545ZM187.947 60.5667H179.515C178.33 60.5667 177.35 60.4039 176.575 60.0811C175.8 59.7583 175.212 59.2487 174.813 58.5551C174.41 57.8614 174.139 57.0851 173.995 56.2313C173.852 55.3749 173.78 54.2918 173.78 52.9792C173.78 50.0498 174.338 48.0355 175.457 46.9337C176.575 45.8319 178.464 45.2796 181.12 45.2796C183.491 45.2796 185.302 45.7118 186.555 46.5762C187.807 47.4406 188.432 49.0067 188.432 51.269C188.432 53.1712 187.649 54.121 186.08 54.121H177.246C177.246 55.4336 177.46 56.4074 177.892 57.045C178.322 57.6827 179.196 58.0001 180.516 58.0001H187.944V60.5667H187.947ZM160.528 45.4503L164.801 56.6609C164.954 57.061 165.088 57.2611 165.204 57.2611C165.319 57.2611 165.453 57.061 165.606 56.6609L169.85 45.4503H173.321L167.527 59.3981C167.355 59.817 167.124 60.1291 166.837 60.3399C166.55 60.548 166.301 60.668 166.092 60.6974C165.882 60.7267 165.585 60.7401 165.204 60.7401C164.823 60.7401 164.525 60.7267 164.316 60.6974C164.106 60.668 163.852 60.5507 163.556 60.3399C163.261 60.1318 163.025 59.817 162.854 59.3981L157.059 45.4503H160.53H160.528ZM152.783 53.7208H147.19C146.119 53.7208 145.583 54.4332 145.583 55.8605C145.583 57.2878 146.119 58.0001 147.19 58.0001H151.922C152.496 58.0001 152.783 57.7147 152.783 57.1437V53.7208ZM143.233 45.4503H151.866C153.261 45.4503 154.323 45.8585 155.05 46.6776C155.777 47.494 156.139 48.5691 156.139 49.9004V58.0001C156.139 59.7103 155.278 60.5667 153.558 60.5667H145.899C143.375 60.5667 142.114 58.9979 142.114 55.8605C142.114 54.3958 142.431 53.2459 143.061 52.4082C143.692 51.5705 144.639 51.1543 145.899 51.1543H152.783V50.1859C152.783 48.7399 152.075 48.0169 150.661 48.0169H143.233V45.4503ZM133.425 60.5667V51.1543C133.425 49.1587 133.932 47.7074 134.946 46.8056C135.96 45.9012 137.5 45.4503 139.563 45.4503H141.83V48.0169H140.424C139.104 48.0169 138.168 48.3397 137.613 48.9853C137.058 49.6309 136.781 50.6501 136.781 52.0374V60.5667H133.425ZM125.968 60.5667H122.182V43.5962H114.352V40.6001H133.825V43.5962H125.968V60.5667Z" fill="#FF8000"/>
<path d="M212.155 32.6551L219.76 14.6361C220.125 13.777 220.543 13.1848 221.013 12.8593C221.482 12.5338 222.169 12.371 223.073 12.371C223.977 12.371 224.613 12.5391 225.104 12.8726C225.595 13.2061 226.021 13.793 226.386 14.6334L233.991 32.6524H229.986L227.912 27.5807H218.204L216.16 32.6524H212.155V32.6551ZM222.496 16.7251L219.183 24.8888H226.933L223.65 16.7251C223.438 16.1701 223.247 15.8953 223.073 15.8953C222.899 15.8953 222.708 16.1728 222.496 16.7251ZM234.769 32.6551V30.0779H243.354C243.737 30.0779 244.07 29.9632 244.346 29.7337C244.625 29.5043 244.765 29.1601 244.765 28.7013C244.765 28.3945 244.708 28.133 244.593 27.9142C244.478 27.6955 244.284 27.514 244.016 27.37C243.748 27.2259 243.517 27.1219 243.324 27.0552C243.131 26.9885 242.825 26.9031 242.401 26.7964C241.98 26.6923 241.701 26.6203 241.567 26.5803L238.629 25.7772C237.055 25.3557 235.984 24.8088 235.418 24.1311C234.852 23.4535 234.568 22.5304 234.568 21.3672C234.568 19.9932 234.914 18.9981 235.606 18.3872C236.298 17.7762 237.412 17.4694 238.949 17.4694H246.27C246.98 17.4694 247.563 18.0457 247.563 18.7553V18.7633C247.563 19.4703 246.983 20.0493 246.27 20.0493H239.466C238.89 20.0493 238.477 20.1453 238.227 20.3347C237.978 20.5268 237.852 20.8897 237.852 21.4232C237.852 21.8234 237.991 22.1622 238.27 22.4397C238.549 22.7172 238.817 22.9039 239.077 22.9973C239.338 23.0933 239.727 23.2161 240.244 23.3708L243.528 24.2886C244.201 24.4806 244.719 24.6381 245.084 24.7608C245.449 24.8862 245.867 25.0676 246.337 25.305C246.806 25.5425 247.163 25.8066 247.402 26.0921C247.64 26.3775 247.847 26.751 248.021 27.2099C248.193 27.6688 248.282 28.1944 248.282 28.7866C248.282 30.0459 248.003 31.0063 247.447 31.6653C246.889 32.3243 245.921 32.6524 244.537 32.6524H234.772L234.769 32.6551ZM257.038 17.4721H265.708C267.111 17.4721 268.176 17.8829 268.905 18.7046C269.635 19.5264 270 20.6042 270 21.9408V30.0779C270 31.796 269.136 32.6551 267.409 32.6551H259.718C257.182 32.6551 255.916 31.0784 255.916 27.9276C255.916 26.4576 256.233 25.3024 256.866 24.462C257.499 23.6216 258.451 23.2027 259.718 23.2027H266.631V22.2289C266.631 20.7776 265.92 20.0519 264.498 20.0519H257.038V17.4747V17.4721ZM266.631 25.7799H261.013C259.937 25.7799 259.401 26.4949 259.401 27.9276C259.401 29.3602 259.937 30.0752 261.013 30.0752H265.767C266.344 30.0752 266.631 29.7898 266.631 29.2162V25.7772V25.7799ZM250.355 32.6551V17.4721H253.725V32.6551H250.355Z" fill="#BB2649"/>
<path d="M201.194 32.6551H204.6V25.6945H204.938L205.357 25.2703L204.938 24.8408H204.592L204.579 21.5086H204.67L205.032 21.1218L204.67 20.7696H204.563L204.501 12.6779H204.67L204.992 12.3524L204.692 12.0456L204.778 11.6614L204.761 11.4746C204.761 11.3866 204.761 11.0584 204.364 10.741C203.954 10.3941 203.731 10.2607 203.538 10.058L203.6 10.0206L203.42 9.91658L203.071 9.51373L203.042 9.21493L203.235 9.0842L203.028 8.9428L202.999 8.68935L203.082 8.61732L202.999 8.55595L202.983 8.37454L202.978 8.29183L203.042 8.23314L202.964 8.19045L202.937 7.75025L202.9 7.70756L202.929 7.68355L202.916 7.66488L202.929 7.62752L202.9 7.15797L202.849 7.62752L202.878 7.67555L202.849 7.68622L202.878 7.71023L202.849 7.75292L202.819 8.19312L202.749 8.23581L202.819 8.2865L202.8 8.37987L202.79 8.57996L202.69 8.62265L202.776 8.69468L202.76 8.90011L202.554 9.0922L202.747 9.27095L202.717 9.52173L202.361 9.93793L202.183 10.0286L202.248 10.066C202.047 10.2687 201.837 10.4021 201.43 10.749C201.027 11.0664 201.027 11.3946 201.027 11.4826L201.011 11.6694L201.094 12.0536L200.788 12.3604L201.118 12.6859H201.274L201.226 20.7776H201.118L200.754 21.1298L201.118 21.5166H201.226L201.191 24.8488H200.861L200.421 25.2784L200.861 25.7025H201.191V32.6631L201.194 32.6551ZM131.319 32.6551H122.907C121.235 32.6551 119.824 32.4123 118.671 31.9241C117.517 31.4359 116.635 30.7209 116.02 29.7764C115.406 28.832 114.974 27.7862 114.725 26.639C114.475 25.4918 114.349 24.1552 114.349 22.6291C114.349 21.1031 114.475 19.7638 114.725 18.6193C114.974 17.4721 115.406 16.4289 116.02 15.4818C116.635 14.5374 117.517 13.8197 118.671 13.3342C119.824 12.8459 121.235 12.6032 122.907 12.6032H131.003V15.6125H124.693C122.236 15.6125 120.549 16.1034 119.637 17.0879C118.725 18.0724 118.269 19.9185 118.269 22.6318C118.269 25.345 118.725 27.1912 119.637 28.1757C120.549 29.1601 122.233 29.651 124.693 29.651H131.319V32.6604V32.6551ZM146.702 32.6551H138.233C137.041 32.6551 136.057 32.4924 135.279 32.1669C134.501 31.8414 133.911 31.3318 133.508 30.6355C133.106 29.9392 132.832 29.1601 132.688 28.3011C132.543 27.442 132.47 26.3535 132.47 25.0356C132.47 22.0955 133.031 20.0706 134.155 18.9608C135.279 17.8536 137.176 17.2987 139.845 17.2987C142.227 17.2987 144.046 17.7335 145.304 18.6033C146.562 19.473 147.19 21.0444 147.19 23.3148C147.19 25.225 146.401 26.1801 144.826 26.1801H135.955C135.955 27.498 136.172 28.4772 136.604 29.1175C137.036 29.7578 137.916 30.0779 139.241 30.0779H146.702V32.6551ZM135.958 23.6029H142.957C143.456 23.6029 143.705 23.3068 143.705 22.7145C143.705 21.7781 143.335 21.0711 142.597 20.5935C141.857 20.116 140.942 19.8785 139.845 19.8785C138.423 19.8785 137.42 20.1693 136.835 20.7536C136.25 21.3352 135.955 22.285 135.955 23.6029H135.958ZM149.381 32.6551V20.0493C149.381 18.3311 150.245 17.4721 151.973 17.4721H157.33C159.213 17.4721 160.673 17.8643 161.708 18.646C162.746 19.4303 163.264 20.7669 163.264 22.6558V32.6551H159.895V23.5442C159.895 22.3597 159.645 21.4819 159.146 20.9083C158.647 20.3347 157.832 20.0493 156.697 20.0493H153.615C153.038 20.0493 152.751 20.3347 152.751 20.9083V32.6551H149.381ZM169.464 13.2488C169.541 13.2488 169.606 13.6036 169.625 14.0678H169.305C169.321 13.6036 169.386 13.2488 169.466 13.2488H169.464ZM168.83 12.8379C168.983 12.8379 169.101 13.3742 169.123 14.0678H168.538C168.56 13.3768 168.678 12.8379 168.83 12.8379ZM167.926 12.8379C168.079 12.8379 168.197 13.3742 168.216 14.0678H167.634C167.658 13.3768 167.774 12.8379 167.926 12.8379ZM167.135 14.0678C167.151 13.6036 167.213 13.2488 167.296 13.2488C167.379 13.2488 167.438 13.6036 167.454 14.0678H167.138H167.135ZM167.411 15.135H169.348C169.686 14.8095 170.059 14.7775 170.059 14.7775L170.03 14.0678H169.702V12.5285C170.038 12.4804 170.255 12.4217 170.255 12.4217C170.255 12.4217 170.11 12.3871 169.882 12.3444L169.799 11.8401H169.627C169.477 11.4586 169.16 11.2159 168.932 11.0905L169.083 11.0504L168.868 10.9837L168.637 10.9624L168.551 10.9437L168.509 10.3328L168.597 10.0526L168.466 9.7325L168.554 9.59644L168.447 9.4577L168.391 8.72403L168.38 8.87343L168.369 8.72403L168.315 9.4577L168.203 9.59644L168.294 9.72983L168.162 10.0526L168.248 10.3328L168.205 10.9437L168.12 10.9624L167.892 10.9837L167.68 11.0504L167.83 11.0905C167.602 11.2159 167.285 11.4586 167.14 11.8401H166.963L166.883 12.3444C166.65 12.3871 166.505 12.4217 166.505 12.4217C166.505 12.4217 166.725 12.4804 167.057 12.5285V14.0678H166.733L166.698 14.7775C166.698 14.7775 167.073 14.8095 167.411 15.135ZM174.413 32.6578H172.31C170.486 32.6578 169.093 32.2763 168.133 31.5106C167.173 30.7475 166.692 29.4776 166.692 27.7008V20.0519H164.589V17.4747H166.692V15.1377H170.062V17.4747H174.413V20.0519H170.062V27.0125C170.062 28.1197 170.349 28.9094 170.926 29.3762C171.502 29.8431 172.385 30.0779 173.576 30.0779H174.41V32.6551L174.413 32.6578ZM175.738 32.6578V23.2027C175.738 21.1965 176.248 19.7398 177.265 18.8327C178.281 17.9256 179.829 17.4721 181.903 17.4721H184.178V20.0493H182.767C181.441 20.0493 180.5 20.3748 179.945 21.0231C179.387 21.6714 179.11 22.6932 179.11 24.0885V32.6551H175.741L175.738 32.6578ZM185.591 17.4747H194.262C195.665 17.4747 196.73 17.8856 197.459 18.7073C198.189 19.529 198.554 20.6069 198.554 21.9435V30.0806C198.554 31.7987 197.69 32.6578 195.962 32.6578H188.271C185.736 32.6578 184.47 31.081 184.47 27.9302C184.47 26.4602 184.787 25.305 185.42 24.4646C186.053 23.6243 187.005 23.2054 188.271 23.2054H195.185V22.2316C195.185 20.7803 194.474 20.0546 193.052 20.0546H185.591V17.4774V17.4747ZM195.185 25.7826H189.567C188.491 25.7826 187.955 26.4976 187.955 27.9302C187.955 29.3629 188.491 30.0779 189.567 30.0779H194.321C194.897 30.0779 195.185 29.7924 195.185 29.2188V25.7799V25.7826Z" fill="#BB2649"/>
<path fill-rule="evenodd" clip-rule="evenodd" d="M252.037 12.243C252.968 12.243 253.722 12.9927 253.722 13.9184C253.722 14.8442 252.968 15.5939 252.037 15.5939C251.106 15.5939 250.353 14.8442 250.353 13.9184C250.353 12.9927 251.106 12.243 252.037 12.243Z" fill="#FF8000"/>
<path fill-rule="evenodd" clip-rule="evenodd" d="M0 0L52.3754 11.3706C52.3754 11.3706 65.5363 13.617 74.7082 24.4593C83.8801 35.299 108.075 67.9541 108.075 67.9541C108.075 67.9541 90.659 75.6216 77.6322 74.96C64.6055 74.2983 56.6274 68.7464 56.6274 68.7464C56.6274 68.7464 45.3282 61.343 40.5424 54.732C35.7566 48.1209 34.8257 46.8003 34.8257 46.8003L96.8451 53.5581L27.6953 37.0331L0 0Z" fill="#BB2649"/>
<path fill-rule="evenodd" clip-rule="evenodd" d="M47.9974 41.886L96.8478 53.5581L34.8284 46.8003L47.9974 41.886Z" fill="#FF8000"/>
<path fill-rule="evenodd" clip-rule="evenodd" d="M0 0L96.8478 53.5581L27.698 37.0331L0 0Z" fill="url(#paint0_linear_152_1176)"/>
</g>
<defs>
<linearGradient id="paint0_linear_152_1176" x1="64.6511" y1="12.9393" x2="48.6882" y2="40.8947" gradientUnits="userSpaceOnUse">
<stop stop-color="#333333"/>
<stop offset="1" stop-color="#333333" stop-opacity="0"/>
</linearGradient>
<clipPath id="clip0_152_1176">
<rect width="270" height="75" fill="white"/>
</clipPath>
</defs>
</svg>
