<svg width="270" height="69" viewBox="0 0 270 69" fill="none" xmlns="http://www.w3.org/2000/svg">
<g clip-path="url(#clip0_152_1193)">
<path d="M112.865 68.8647H109.913V55.6247H103.801V53.2896H118.998V55.6247H112.865V68.8647Z" fill="#FF8000"/>
<path d="M118.683 68.8647V61.523C118.683 59.9652 119.085 58.8306 119.87 58.1193C120.652 57.4289 121.863 57.075 123.475 57.075H125.245V59.0769H124.149C123.119 59.0769 122.38 59.3233 121.954 59.8333C121.528 60.3433 121.305 61.124 121.305 62.2135V68.8682H118.687L118.683 68.8647Z" fill="#FF8000"/>
<path d="M126.337 57.0715H133.073C134.169 57.0715 135 57.3838 135.558 58.0291C136.117 58.6745 136.41 59.4968 136.41 60.5446V66.8627C136.41 68.1985 135.74 68.8647 134.396 68.8647H128.421C126.453 68.8647 125.465 67.6399 125.465 65.1939C125.465 64.0593 125.713 63.1468 126.205 62.5014C126.697 61.8561 127.437 61.523 128.421 61.523H133.792V60.7666C133.792 59.6321 133.234 59.0769 132.135 59.0769H126.337V57.075V57.0715ZM133.792 63.525H129.426C128.599 63.525 128.173 64.0801 128.173 65.1939C128.173 66.3076 128.599 66.8627 129.426 66.8627H133.119C133.566 66.8627 133.789 66.6407 133.789 66.1966V63.525H133.792ZM139.834 57.0715L143.17 65.8149C143.282 66.1272 143.394 66.2833 143.485 66.2833C143.575 66.2833 143.687 66.1272 143.799 65.8149L147.111 57.0715H149.819L145.3 67.9522C145.167 68.2853 144.985 68.5316 144.762 68.6877C144.539 68.8439 144.336 68.9549 144.179 68.9757C144.022 68.9965 143.778 68.9965 143.485 68.9965C143.191 68.9965 142.947 68.9965 142.79 68.9757C142.633 68.9549 142.431 68.8439 142.207 68.6877C141.959 68.5316 141.781 68.2887 141.649 67.9522L137.129 57.0715H139.837H139.834ZM161.232 68.8647H154.65C153.732 68.8647 152.971 68.7328 152.367 68.4865C151.763 68.2402 151.292 67.8412 150.978 67.286C150.664 66.7517 150.461 66.1515 150.35 65.4853C150.238 64.8191 150.172 63.9725 150.172 62.949C150.172 60.6556 150.619 59.1012 151.491 58.2304C152.364 57.3595 153.819 56.9397 155.899 56.9397C157.756 56.9397 159.166 57.2727 160.154 57.9424C161.117 58.6328 161.609 59.8576 161.609 61.6132C161.609 63.1052 161.005 63.8372 159.773 63.8372H152.88C152.88 64.8608 153.058 65.6171 153.397 66.1064C153.732 66.6199 154.405 66.8627 155.435 66.8627H161.232V68.8647ZM152.884 61.8318H158.321C158.702 61.8318 158.904 61.6098 158.904 61.1414C158.904 60.4058 158.615 59.8715 158.053 59.4933C157.47 59.1151 156.754 58.9382 155.903 58.9382C154.807 58.9382 154.021 59.1602 153.575 59.6043C153.104 60.0727 152.88 60.8048 152.88 61.8283L152.884 61.8318ZM163.312 68.8647V53.2896H165.93V68.8647H163.312Z" fill="#FF8000"/>
<path d="M169.654 44.2166L182.847 12.9694C183.479 11.4774 184.205 10.4539 185.021 9.88837C185.838 9.3263 187.028 9.04526 188.595 9.04526C190.162 9.04526 191.269 9.3367 192.117 9.91613C192.965 10.4956 193.708 11.5156 194.34 12.9728L207.533 44.2201H200.587L196.989 35.4281H180.149L176.599 44.2201H169.654V44.2166ZM187.593 16.5951L181.845 30.7546H195.289L189.593 16.5951C189.227 15.634 188.895 15.1552 188.595 15.1552C188.295 15.1552 187.963 15.634 187.597 16.5951H187.593ZM208.88 44.2166V39.7443H223.773C224.439 39.7443 225.015 39.5465 225.497 39.1475C225.978 38.7485 226.223 38.1552 226.223 37.3607C226.223 36.8298 226.122 36.3753 225.923 35.9937C225.724 35.612 225.389 35.2997 224.924 35.0499C224.457 34.8001 224.059 34.6197 223.724 34.5052C223.392 34.3907 222.858 34.2415 222.125 34.0576C221.392 33.8737 220.911 33.7523 220.677 33.6864L215.581 32.2951C212.848 31.5665 210.992 30.6158 210.011 29.4396C209.027 28.2634 208.538 26.6674 208.538 24.6446C208.538 22.261 209.138 20.5366 210.335 19.4784C211.536 18.4201 213.466 17.8893 216.133 17.8893H228.833C230.069 17.8893 231.074 18.892 231.074 20.1168V20.1306C231.074 21.3589 230.065 22.3581 228.833 22.3581H217.033C216.035 22.3581 215.316 22.5247 214.883 22.8543C214.45 23.1839 214.234 23.8154 214.234 24.7417C214.234 25.4357 214.475 26.0255 214.96 26.5043C215.442 26.9831 215.909 27.3058 216.359 27.4723C216.81 27.6389 217.483 27.854 218.384 28.1177L224.08 29.7067C225.245 30.0364 226.146 30.3105 226.778 30.5256C227.409 30.7407 228.135 31.0564 228.952 31.4693C229.769 31.8822 230.383 32.3402 230.802 32.8363C231.217 33.3325 231.577 33.9778 231.877 34.7724C232.177 35.5669 232.327 36.4794 232.327 37.5029C232.327 39.6888 231.845 41.3542 230.879 42.4957C229.912 43.6372 228.23 44.2097 225.832 44.2097H208.891L208.88 44.2166ZM247.509 17.8893H262.552C264.985 17.8893 266.834 18.6005 268.098 20.0266C269.365 21.4491 269.997 23.3227 269.997 25.6404V39.7478C269.997 42.7282 268.496 44.2201 265.498 44.2201H252.155C247.757 44.2201 245.558 41.486 245.558 36.0249C245.558 33.4747 246.11 31.4728 247.206 30.0155C248.305 28.5583 249.956 27.8297 252.151 27.8297H264.143V26.14C264.143 23.6245 262.911 22.3651 260.444 22.3651H247.502V17.8927L247.509 17.8893ZM264.15 32.2951H254.406C252.539 32.2951 251.607 33.5372 251.607 36.0214C251.607 38.5057 252.539 39.7478 254.406 39.7478H262.65C263.648 39.7478 264.15 39.2516 264.15 38.2558V32.2951ZM235.915 44.2166V17.8858H241.761V44.2132H235.915V44.2166Z" fill="#BB2649"/>
<path d="M150.643 44.2166H156.552V32.1459H157.138L157.868 31.4103L157.138 30.6678H156.538L156.517 24.8909H156.674L157.302 24.2213L156.674 23.6106H156.486L156.377 9.57957H156.671L157.232 9.01402L156.712 8.4797L156.862 7.81007L156.835 7.48739C156.835 7.33473 156.835 6.76572 156.147 6.21405C155.435 5.61381 155.051 5.38135 154.716 5.02745L154.824 4.96499L154.514 4.78457L153.906 4.08718L153.854 3.57021L154.192 3.34469L153.833 3.09835L153.781 2.65771L153.927 2.5328L153.781 2.42524L153.753 2.10951L153.742 1.96379L153.854 1.86317L153.718 1.78684L153.672 1.02352L153.606 0.950662L153.658 0.909027L153.634 0.874331L153.658 0.808408L153.606 -0.003479L153.519 0.808408L153.571 0.891679L153.519 0.909027L153.571 0.950662L153.519 1.02352L153.47 1.78684L153.348 1.86317L153.47 1.94991L153.439 2.10951L153.421 2.45647L153.25 2.5328L153.397 2.65771L153.369 3.01161L153.009 3.34469L153.348 3.65348L153.296 4.08718L152.678 4.80886L152.371 4.96499L152.486 5.02745C152.14 5.38135 151.774 5.61381 151.065 6.21405C150.367 6.76572 150.367 7.33473 150.367 7.48739L150.339 7.81007L150.486 8.4797L149.955 9.01402L150.524 9.57957H150.797L150.713 23.6106H150.528L149.893 24.2213L150.528 24.8909H150.713L150.653 30.6678H150.081L149.32 31.4103L150.081 32.1459H150.653L150.646 44.2166H150.643ZM29.4361 44.2166H14.8437C11.9469 44.2166 9.49677 43.7933 7.4969 42.9502C5.49703 42.1071 3.96484 40.865 2.90034 39.2239C1.83584 37.5862 1.08545 35.7716 0.652667 33.7835C0.219885 31.7954 0.00349426 29.4777 0.00349426 26.827C0.00349426 24.1762 0.219885 21.8585 0.652667 19.8739C1.08545 17.8858 1.83584 16.0747 2.90034 14.4335C3.96484 12.7924 5.50052 11.5538 7.4969 10.7072C9.49677 9.86407 11.9434 9.44078 14.8437 9.44078H28.8847V14.6556H17.9395C13.6745 14.6556 10.7532 15.5091 9.1687 17.2127C7.58765 18.9197 6.79538 22.1222 6.79538 26.827C6.79538 31.5317 7.58765 34.7342 9.1687 36.4412C10.7497 38.1483 13.6745 38.9983 17.9395 38.9983H29.4327V44.2131L29.4361 44.2166ZM56.122 44.2166H41.4319C39.3657 44.2166 37.659 43.9356 36.3083 43.3735C34.9576 42.8114 33.935 41.9232 33.2335 40.7158C32.5354 39.5084 32.0608 38.1587 31.8095 36.6668C31.5582 35.1748 31.436 33.2874 31.436 31.0044C31.436 25.9041 32.4098 22.3928 34.3608 20.4741C36.3083 18.552 39.5995 17.5943 44.231 17.5943C48.3634 17.5943 51.5185 18.3473 53.6999 19.8531C55.8812 21.3589 56.9736 24.0825 56.9736 28.024C56.9736 31.3374 55.609 32.9924 52.8762 32.9924H37.4845C37.4845 35.2789 37.8579 36.9756 38.6083 38.0858C39.3587 39.1961 40.8804 39.7512 43.1805 39.7512H56.122V44.2236V44.2166ZM37.481 28.5201H49.6233C50.4889 28.5201 50.9217 28.0066 50.9217 26.9796C50.9217 25.3559 50.2795 24.1311 48.9986 23.3018C47.7177 22.4726 46.1262 22.0597 44.2275 22.0597C41.7634 22.0597 40.0219 22.5663 39.0062 23.5759C37.9906 24.5856 37.481 26.2337 37.481 28.5201ZM60.7675 44.2166V22.3581C60.7675 19.3777 62.2682 17.8858 65.2663 17.8858H74.5606C77.824 17.8858 80.3578 18.5658 82.1553 19.9225C83.9527 21.2791 84.8532 23.6002 84.8532 26.879V44.2166H79.0071V28.4195C79.0071 26.3655 78.5743 24.8424 77.7088 23.85C76.8432 22.8577 75.4262 22.3581 73.4612 22.3581H68.1143C67.1161 22.3581 66.6135 22.8543 66.6135 23.85V44.2166H60.7675ZM95.6064 10.5649C95.7425 10.5649 95.8542 11.1791 95.8821 11.984H95.3272C95.3551 11.1825 95.4668 10.5649 95.6029 10.5649H95.6064ZM94.507 9.85019C94.7722 9.85019 94.9782 10.78 95.0131 11.9805H94.0009C94.0358 10.78 94.2452 9.85019 94.507 9.85019ZM92.9399 9.85019C93.2052 9.85019 93.4076 10.78 93.4425 11.9805H92.4338C92.4757 10.78 92.6746 9.85019 92.9434 9.85019H92.9399ZM91.5648 11.9805C91.5927 11.1791 91.7009 10.5615 91.8405 10.5615C91.9801 10.5615 92.0848 11.1756 92.1127 11.9805H91.5613H91.5648ZM92.0464 13.8298H95.404C95.9903 13.2643 96.636 13.2088 96.636 13.2088L96.5871 11.9771H96.0182V9.30894C96.5976 9.22567 96.978 9.12158 96.978 9.12158C96.978 9.12158 96.7267 9.05912 96.3289 8.98626L96.1823 8.11192H95.8821C95.6238 7.4527 95.0724 7.02941 94.678 6.81082L94.9398 6.7449L94.5663 6.62693L94.1684 6.58877L94.0184 6.55754L93.9451 5.49931L94.0986 5.01357L93.8683 4.45843L94.0253 4.2225L93.8369 3.9831L93.7391 2.70975L93.7217 2.96997L93.7042 2.70975L93.61 3.9831L93.4146 4.2225L93.5751 4.45496L93.3448 5.01357L93.4948 5.49931L93.4215 6.55754L93.2715 6.58877L92.8736 6.62693L92.5036 6.7449L92.7654 6.81082C92.371 7.02941 91.8195 7.4527 91.5683 8.11192H91.2611L91.1215 8.98626C90.7166 9.05912 90.4654 9.12158 90.4654 9.12158C90.4654 9.12158 90.8458 9.22567 91.4217 9.30894V11.9771H90.8597L90.8004 13.2088C90.8004 13.2088 91.4496 13.2643 92.0394 13.8298H92.0464ZM104.192 44.2131H100.545C97.3794 44.2131 94.9642 43.5505 93.2994 42.2251C91.6346 40.8997 90.8004 38.6965 90.8004 35.6189V22.3546H87.1532V17.8823H90.8004V13.8298H96.6465V17.8823H104.192V22.3546H96.6465V34.4254C96.6465 36.3476 97.1456 37.7111 98.1472 38.523C99.1454 39.3349 100.678 39.7408 102.744 39.7408H104.192V44.2131ZM106.492 44.2131V27.8193C106.492 24.3427 107.375 21.8169 109.141 20.2417C110.907 18.6699 113.588 17.8823 117.186 17.8823H121.134V22.3546H118.683C116.383 22.3546 114.753 22.9167 113.787 24.0443C112.82 25.172 112.338 26.9415 112.338 29.3598V44.2131H106.492ZM123.584 17.8858H138.626C141.059 17.8858 142.909 18.5971 144.172 20.0231C145.439 21.4456 146.071 23.3192 146.071 25.6369V39.7443C146.071 42.7247 144.57 44.2166 141.572 44.2166H128.229C123.831 44.2166 121.633 41.4826 121.633 36.0214C121.633 33.4713 122.181 31.4693 123.28 30.0121C124.379 28.5548 126.027 27.8262 128.226 27.8262H140.218V26.1365C140.218 23.6211 138.986 22.3616 136.518 22.3616H123.577V17.8893L123.584 17.8858ZM140.225 32.2916H130.48C128.613 32.2916 127.681 33.5337 127.681 36.0179C127.681 38.5022 128.613 39.7443 130.48 39.7443H138.724C139.722 39.7443 140.225 39.2481 140.225 38.2524V32.2916Z" fill="#BB2649"/>
<path fill-rule="evenodd" clip-rule="evenodd" d="M238.843 8.81973C240.459 8.81973 241.768 10.1208 241.768 11.7273C241.768 13.3337 240.459 14.6348 238.843 14.6348C237.227 14.6348 235.918 13.3337 235.918 11.7273C235.918 10.1208 237.227 8.81973 238.843 8.81973Z" fill="#FF8000"/>
</g>
<defs>
<clipPath id="clip0_152_1193">
<rect width="270" height="69" fill="white"/>
</clipPath>
</defs>
</svg>
