<svg width="22" height="17" viewBox="0 0 22 17" fill="none" xmlns="http://www.w3.org/2000/svg">
<path opacity="0.5" d="M16.3192 7.90274C17.7964 7.90274 18.9939 6.7052 18.9939 5.22796C18.9939 3.75073 17.7964 2.55319 16.3192 2.55319M19.2486 14.005L19.5107 14.0425C20.2967 14.1548 21 13.5448 21 12.7508V11.8711C21 11.2958 20.6383 10.7826 20.0965 10.5891C19.5561 10.3961 19.0045 10.2458 18.4468 10.1382M5.68085 7.90274C4.20362 7.90274 3.00608 6.7052 3.00608 5.22796C3.00608 3.75073 4.20362 2.55319 5.68085 2.55319M2.75139 14.005L2.48932 14.0425C1.70327 14.1548 1 13.5448 1 12.7508V11.8711C1 11.2958 1.36167 10.7826 1.90347 10.5891C2.44392 10.3961 2.99546 10.2458 3.55319 10.1382M7.8085 4.40426C7.8085 6.28437 9.33264 7.80851 11.2128 7.80851C13.0929 7.80851 14.617 6.28437 14.617 4.40426C14.617 2.52414 13.0929 1 11.2128 1C9.33264 1 7.8085 2.52414 7.8085 4.40426ZM14.9412 15.5753L15.2747 15.623C16.2751 15.7659 17.1702 14.9896 17.1702 13.979V12.8594C17.1702 12.1272 16.7099 11.474 16.0203 11.2278C12.9115 10.1174 9.51408 10.1174 6.40518 11.2278C5.71562 11.474 5.25532 12.1272 5.25532 12.8594V13.979C5.25532 14.9896 6.15039 15.7659 7.15082 15.623L7.48437 15.5753C9.95741 15.222 12.4681 15.222 14.9412 15.5753Z" stroke="#BB2649" stroke-width="1.5" stroke-linecap="round"/>
</svg>
