<svg width="10" height="10" viewBox="0 0 10 10" fill="none" xmlns="http://www.w3.org/2000/svg">
<path d="M0.583333 10C0.416667 10 0.277778 9.94445 0.166667 9.83333C0.0555555 9.72222 0 9.58333 0 9.41667V7.16667C0 7.03704 0.0416666 6.92352 0.125 6.82611C0.208333 6.72907 0.314815 6.66667 0.444444 6.63889L2.36111 6.25C2.49074 6.23148 2.62278 6.24296 2.75722 6.28444C2.8913 6.3263 3 6.38889 3.08333 6.47222L4.38889 7.77778C5.09259 7.35185 5.73611 6.84722 6.31944 6.26389C6.90278 5.68056 7.38889 5.05556 7.77778 4.38889L6.44445 3.02778C6.36111 2.94444 6.30778 2.84944 6.28444 2.74278C6.26148 2.63648 6.25926 2.51852 6.27778 2.38889L6.63889 0.444444C6.65741 0.314815 6.71759 0.208333 6.81944 0.125C6.9213 0.0416666 7.03704 0 7.16667 0H9.41667C9.58333 0 9.72222 0.0555555 9.83333 0.166667C9.94445 0.277778 10 0.416667 10 0.583333C10 1.77778 9.7337 2.94204 9.20111 4.07611C8.66889 5.21056 7.96519 6.21519 7.09 7.09C6.21519 7.96519 5.21074 8.66889 4.07667 9.20111C2.94222 9.7337 1.77778 10 0.583333 10Z" fill="#BB2649"/>
</svg>
