<svg width="34" height="36" viewBox="0 0 34 36" fill="none" xmlns="http://www.w3.org/2000/svg">
<path fill-rule="evenodd" clip-rule="evenodd" d="M32.1111 20.8421V30.3158C32.1111 31.8233 31.5141 33.2691 30.4514 34.3351C29.3887 35.4011 27.9473 36 26.4444 36H18.8889V20.8421H32.1111ZM15.1111 20.8421V36H7.55556C6.05267 36 4.61133 35.4011 3.54862 34.3351C2.48591 33.2691 1.88889 31.8233 1.88889 30.3158V20.8421H15.1111ZM11.3333 5.32163e-06C12.4054 -0.00127062 13.4655 0.226912 14.4427 0.669316C15.4199 1.11172 16.2917 1.75816 17 2.56548C17.7083 1.75816 18.5801 1.11172 19.5573 0.669316C20.5345 0.226912 21.5946 -0.00127062 22.6667 5.32163e-06H23.6111C24.3626 5.32163e-06 25.0832 0.299441 25.6146 0.832439C26.1459 1.36544 26.4444 2.08834 26.4444 2.84211V3.78948C26.4444 5.17074 26.0761 6.46485 25.4339 7.57895H30.2222C31.2242 7.57895 32.185 7.9782 32.8935 8.68886C33.602 9.39953 34 10.3634 34 11.3684V15.1579C34 15.8476 33.8168 16.4956 33.4938 17.0526H18.8889V11.3684C18.8889 10.8659 18.6899 10.384 18.3356 10.0286C17.9814 9.67331 17.501 9.47369 17 9.47369C16.499 9.47369 16.0186 9.67331 15.6644 10.0286C15.3101 10.384 15.1111 10.8659 15.1111 11.3684V17.0526H0.506225C0.17379 16.4769 -0.000860871 15.8232 3.1906e-06 15.1579V11.3684C3.1906e-06 10.3634 0.398018 9.39953 1.10649 8.68886C1.81496 7.9782 2.77585 7.57895 3.77778 7.57895H8.56611C7.90207 6.42726 7.55344 5.11992 7.55556 3.78948V2.84211C7.55556 2.08834 7.85407 1.36544 8.38542 0.832439C8.91677 0.299441 9.63744 5.32163e-06 10.3889 5.32163e-06H11.3333ZM11.3333 3.78948C11.3333 4.79451 11.7314 5.75838 12.4398 6.46904C13.1483 7.17971 14.1092 7.57895 15.1111 7.57895C15.1111 6.57392 14.7131 5.61005 14.0046 4.89939C13.2962 4.18873 12.3353 3.78948 11.3333 3.78948ZM22.6667 3.78948C21.6647 3.78948 20.7038 4.18873 19.9954 4.89939C19.2869 5.61005 18.8889 6.57392 18.8889 7.57895C19.8908 7.57895 20.8517 7.17971 21.5602 6.46904C22.2687 5.75838 22.6667 4.79451 22.6667 3.78948Z" fill="#BB2649"/>
</svg>
