<svg width="57" height="46" viewBox="0 0 57 46" fill="none" xmlns="http://www.w3.org/2000/svg">
<path d="M18.6014 21.5118C20.8159 22.5039 22.5431 23.9922 23.7832 25.9765C25.0233 27.9608 25.6434 30.3059 25.6434 33.0118C25.6434 36.8902 24.4476 40.0471 22.0559 42.4823C19.6643 44.8274 16.6084 46 12.8881 46C9.16783 46 6.0676 44.7824 3.58741 42.3471C1.1958 39.9118 0 36.8 0 33.0118C0 31.2078 0.221445 29.4039 0.664335 27.6C1.10723 25.7961 2.08159 23.0902 3.58741 19.4823L11.2937 0H24.4476L18.6014 21.5118ZM49.958 21.5118C52.1725 22.5039 53.8998 23.9922 55.1399 25.9765C56.38 27.9608 57 30.3059 57 33.0118C57 36.8902 55.8042 40.0471 53.4126 42.4823C51.021 44.8274 47.965 46 44.2448 46C40.5245 46 37.4242 44.7824 34.9441 42.3471C32.5524 39.9118 31.3566 36.8 31.3566 33.0118C31.3566 31.2078 31.5781 29.4039 32.021 27.6C32.4639 25.7961 33.4382 23.0902 34.9441 19.4823L42.6504 0H55.8042L49.958 21.5118Z" fill="#BB2649"/>
</svg>
