<svg width="41" height="32" viewBox="0 0 41 32" fill="none" xmlns="http://www.w3.org/2000/svg">
<path d="M27.62 17.0353C26.0272 16.3451 24.7848 15.3098 23.8928 13.9294C23.0008 12.549 22.5548 10.9176 22.5548 9.03529C22.5548 6.33726 23.4149 4.14118 25.1352 2.44706C26.8555 0.815685 29.0536 0 31.7296 0C34.4056 0 36.6356 0.847059 38.4196 2.54118C40.1399 4.23529 41 6.4 41 9.03529C41 10.2902 40.8407 11.5451 40.5221 12.8C40.2036 14.0549 39.5027 15.9373 38.4196 18.4471L32.8765 32H23.4149L27.62 17.0353ZM5.06527 17.0353C3.47242 16.3451 2.22999 15.3098 1.33799 13.9294C0.445995 12.549 0 10.9176 0 9.03529C0 6.33726 0.860142 4.14118 2.58042 2.44706C4.3007 0.815685 6.49884 0 9.17483 0C11.8508 0 14.0808 0.847059 15.8648 2.54118C17.5851 4.23529 18.4452 6.4 18.4452 9.03529C18.4452 10.2902 18.2859 11.5451 17.9674 12.8C17.6488 14.0549 16.9479 15.9373 15.8648 18.4471L10.3217 32H0.860142L5.06527 17.0353Z" fill="#212121"/>
</svg>
