<svg width="33" height="32" viewBox="0 0 33 32" fill="none" xmlns="http://www.w3.org/2000/svg">
<path d="M2.11777 18.107L25.7732 18.107L15.4385 28.3912C14.6126 29.2131 14.6126 30.5618 15.4385 31.3837C15.6344 31.5791 15.8672 31.7341 16.1234 31.8398C16.3796 31.9456 16.6542 32 16.9316 32C17.2089 32 17.4836 31.9456 17.7397 31.8398C17.9959 31.7341 18.2287 31.5791 18.4246 31.3837L32.3807 17.4958C32.577 17.3009 32.7328 17.0693 32.839 16.8143C32.9453 16.5594 33 16.2861 33 16.0101C33 15.7341 32.9453 15.4608 32.839 15.2059C32.7328 14.9509 32.577 14.7193 32.3807 14.5244L18.4458 0.615408C18.2497 0.420299 18.0169 0.26553 17.7608 0.159938C17.5046 0.0543463 17.23 -6.85216e-07 16.9527 -7.01448e-07C16.6755 -7.1768e-07 16.4009 0.0543463 16.1447 0.159938C15.8885 0.26553 15.6558 0.420299 15.4597 0.615408C15.2636 0.810517 15.1081 1.04214 15.002 1.29707C14.8959 1.55199 14.8413 1.82521 14.8413 2.10114C14.8413 2.37706 14.8959 2.65029 15.002 2.90521C15.1081 3.16013 15.2636 3.39176 15.4597 3.58687L25.7732 13.8921L2.11777 13.8921C0.952995 13.8921 -6.48698e-07 14.8405 -6.99363e-07 15.9996C-7.50028e-07 17.1586 0.952995 18.107 2.11777 18.107Z" fill="#BB2649"/>
</svg>
