<svg width="24" height="24" viewBox="0 0 24 24" fill="none" xmlns="http://www.w3.org/2000/svg">
<path opacity="0.2" d="M22.4598 13.5802L5.25583 13.5802L12.772 21.2934C13.3727 21.9098 13.3727 22.9214 12.772 23.5378C12.6295 23.6843 12.4602 23.8005 12.2739 23.8799C12.0876 23.9592 11.8879 24 11.6861 24C11.4844 24 11.2847 23.9592 11.0984 23.8799C10.912 23.8005 10.7428 23.6843 10.6003 23.5378L0.450422 13.1219C0.30764 12.9756 0.194363 12.802 0.117073 12.6108C0.0397841 12.4195 5.33916e-07 12.2146 5.24868e-07 12.0076C5.15819e-07 11.8006 0.039784 11.5956 0.117073 11.4044C0.194362 11.2132 0.30764 11.0395 0.450422 10.8933L10.5849 0.461556C10.7275 0.315225 10.8968 0.199148 11.0831 0.119954C11.2694 0.0407597 11.4691 -4.98245e-07 11.6707 -5.10143e-07C11.8724 -5.22042e-07 12.0721 0.0407597 12.2584 0.119954C12.4447 0.199148 12.614 0.315224 12.7566 0.461556C12.8992 0.607888 13.0123 0.781608 13.0895 0.9728C13.1666 1.16399 13.2063 1.36891 13.2063 1.57585C13.2063 1.7828 13.1666 1.98772 13.0895 2.17891C13.0123 2.3701 12.8992 2.54382 12.7566 2.69015L5.25583 10.4191L22.4598 10.4191C23.3069 10.4191 24 11.1304 24 11.9997C24 12.869 23.3069 13.5802 22.4598 13.5802Z" fill="#BB2649"/>
</svg>
