<svg width="31" height="31" viewBox="0 0 31 31" fill="none" xmlns="http://www.w3.org/2000/svg">
<path d="M31 15.5C31 24.0604 24.0604 31 15.5 31C6.93959 31 0 24.0604 0 15.5C0 6.93959 6.93959 0 15.5 0C24.0604 0 31 6.93959 31 15.5Z" fill="#F6F8FC"/>
<path d="M20.8635 9.13639L8.46012 14.0323C7.96099 14.2603 7.79217 14.7169 8.33948 14.9647L11.5215 15.9998L19.2151 11.1327C19.6352 10.8272 20.0653 10.9086 19.6952 11.2448L13.0874 17.3689L12.8798 19.9607C13.0721 20.3609 13.4241 20.3627 13.6486 20.1638L15.4768 18.3932L18.6078 20.7931C19.335 21.2337 19.7307 20.9494 19.8871 20.1417L21.9408 10.1877C22.154 9.19353 21.7904 8.75546 20.8635 9.13639Z" fill="#27A4DA"/>
</svg>
