<svg width="25" height="24" viewBox="0 0 25 24" fill="none" xmlns="http://www.w3.org/2000/svg">
<path d="M1.60437 13.5802L19.5252 13.5802L11.6959 21.2934C11.0702 21.9098 11.0702 22.9214 11.6959 23.5378C11.8443 23.6843 12.0206 23.8005 12.2147 23.8799C12.4088 23.9592 12.6168 24 12.8269 24C13.0371 24 13.2451 23.9592 13.4392 23.8799C13.6333 23.8005 13.8096 23.6843 13.958 23.5378L24.5308 13.1219C24.6795 12.9756 24.7975 12.802 24.878 12.6108C24.9586 12.4195 25 12.2146 25 12.0076C25 11.8006 24.9586 11.5956 24.878 11.4044C24.7975 11.2132 24.6795 11.0395 24.5308 10.8933L13.9741 0.461556C13.8255 0.315225 13.6492 0.199148 13.4551 0.119954C13.261 0.0407597 13.053 -5.19134e-07 12.843 -5.314e-07C12.6329 -5.43666e-07 12.4249 0.0407597 12.2308 0.119954C12.0368 0.199148 11.8604 0.315224 11.7119 0.461556C11.5634 0.607888 11.4455 0.781608 11.3652 0.9728C11.2848 1.16399 11.2434 1.36891 11.2434 1.57585C11.2434 1.7828 11.2848 1.98772 11.3652 2.17891C11.4455 2.3701 11.5634 2.54382 11.7119 2.69015L19.5252 10.4191L1.60437 10.4191C0.721969 10.4191 1.42083e-06 11.1304 1.38283e-06 11.9997C1.34483e-06 12.869 0.721969 13.5802 1.60437 13.5802Z" fill="#BB2649"/>
</svg>
