<svg width="25" height="24" viewBox="0 0 25 24" fill="none" xmlns="http://www.w3.org/2000/svg">
<path d="M23.3956 13.5802L5.47482 13.5802L13.3041 21.2934C13.9298 21.9098 13.9298 22.9214 13.3041 23.5378C13.1557 23.6843 12.9794 23.8005 12.7853 23.8799C12.5912 23.9592 12.3832 24 12.1731 24C11.9629 24 11.7549 23.9592 11.5608 23.8799C11.3667 23.8005 11.1904 23.6843 11.042 23.5378L0.469189 13.1219C0.320458 12.9756 0.202461 12.802 0.121951 12.6108C0.0414417 12.4195 5.33916e-07 12.2146 5.24868e-07 12.0076C5.15819e-07 11.8006 0.0414417 11.5956 0.121951 11.4044C0.202461 11.2132 0.320458 11.0395 0.469189 10.8933L11.0259 0.461556C11.1745 0.315225 11.3508 0.199148 11.5449 0.119954C11.739 0.0407597 11.947 -5.19134e-07 12.157 -5.314e-07C12.3671 -5.43666e-07 12.5751 0.0407597 12.7692 0.119954C12.9632 0.199148 13.1396 0.315224 13.2881 0.461556C13.4366 0.607888 13.5545 0.781608 13.6348 0.9728C13.7152 1.16399 13.7566 1.36891 13.7566 1.57585C13.7566 1.7828 13.7152 1.98772 13.6348 2.17891C13.5545 2.3701 13.4366 2.54382 13.2881 2.69015L5.47482 10.4191L23.3956 10.4191C24.278 10.4191 25 11.1304 25 11.9997C25 12.869 24.278 13.5802 23.3956 13.5802Z" fill="#BB2649"/>
</svg>
