<svg width="31" height="31" viewBox="0 0 31 31" fill="none" xmlns="http://www.w3.org/2000/svg">
<path d="M31 15.5C31 24.0604 24.0604 31 15.5 31C6.93959 31 0 24.0604 0 15.5C0 6.93959 6.93959 0 15.5 0C24.0604 0 31 6.93959 31 15.5Z" fill="#F6F8FC"/>
<path fill-rule="evenodd" clip-rule="evenodd" d="M16 7.5C11.8578 7.5 8.5 10.8578 8.5 15C8.5 16.4175 8.89375 17.745 9.5785 18.876L8.9095 21.15C8.87109 21.2806 8.86856 21.4191 8.90218 21.5509C8.93581 21.6828 9.00434 21.8032 9.10057 21.8994C9.1968 21.9957 9.31719 22.0642 9.44906 22.0978C9.58094 22.1314 9.71944 22.1289 9.85 22.0905L12.124 21.4215C13.293 22.1288 14.6337 22.5019 16 22.5C20.1422 22.5 23.5 19.1422 23.5 15C23.5 10.8578 20.1422 7.5 16 7.5ZM14.3035 16.6973C15.8207 18.2138 17.269 18.414 17.7805 18.4327C18.5582 18.4612 19.3157 17.8672 19.6105 17.178C19.6477 17.0923 19.6612 16.9981 19.6496 16.9053C19.638 16.8126 19.6017 16.7247 19.5445 16.6507C19.1335 16.1257 18.5777 15.7485 18.0347 15.3735C17.9214 15.2951 17.7821 15.2637 17.646 15.2858C17.51 15.3078 17.3877 15.3818 17.305 15.492L16.855 16.1782C16.8313 16.2151 16.7945 16.2416 16.7519 16.2522C16.7094 16.2628 16.6645 16.2567 16.6262 16.2353C16.321 16.0605 15.8762 15.7635 15.5567 15.444C15.2372 15.1245 14.9582 14.7 14.8015 14.4142C14.7821 14.3779 14.7764 14.3358 14.7857 14.2957C14.7949 14.2556 14.8184 14.2202 14.8517 14.196L15.5447 13.6815C15.6436 13.5955 15.7075 13.4761 15.7241 13.3461C15.7407 13.2161 15.7089 13.0846 15.6347 12.9765C15.2987 12.4845 14.9072 11.859 14.3395 11.4443C14.2662 11.3912 14.1804 11.358 14.0904 11.3482C14.0005 11.3383 13.9095 11.352 13.8265 11.388C13.1365 11.6835 12.5395 12.441 12.568 13.2202C12.5867 13.7317 12.787 15.18 14.3035 16.6973Z" fill="#09D743"/>
</svg>
