<svg width="164" height="46" viewBox="0 0 164 46" fill="none" xmlns="http://www.w3.org/2000/svg">
<g clip-path="url(#clip0_214_10710)">
<path d="M115.781 36.4579V24.4391H117.819V36.4579H115.781ZM107.663 31.0331H111.896C112.198 31.0331 112.349 30.8564 112.349 30.5015C112.349 29.941 112.126 29.5171 111.678 29.2312C111.231 28.9453 110.676 28.8024 110.014 28.8024C109.155 28.8024 108.548 28.9775 108.194 29.326C107.84 29.6744 107.663 30.2445 107.663 31.0347V31.0331ZM114.161 36.4579H109.04C108.32 36.4579 107.725 36.3599 107.254 36.1656C106.783 35.9713 106.426 35.6646 106.183 35.247C105.939 34.8295 105.774 34.3622 105.686 33.8483C105.6 33.3328 105.556 32.6808 105.556 31.8906C105.556 30.1273 105.895 28.9148 106.574 28.2516C107.254 27.5883 108.401 27.2559 110.014 27.2559C111.455 27.2559 112.554 27.5161 113.315 28.0364C114.076 28.5567 114.456 29.4994 114.456 30.8612C114.456 32.0063 113.98 32.578 113.027 32.578H107.661C107.661 33.3681 107.792 33.9543 108.054 34.3381C108.315 34.7219 108.846 34.913 109.648 34.913H114.159V36.4579H114.161ZM97.5066 27.3587L100.102 34.1068C100.195 34.3477 100.277 34.4682 100.347 34.4682C100.417 34.4682 100.498 34.3477 100.591 34.1068L103.169 27.3587H105.277L101.758 35.7545C101.653 36.0066 101.513 36.1945 101.339 36.3214C101.165 36.4467 101.013 36.5189 100.886 36.5366C100.759 36.5543 100.578 36.5623 100.347 36.5623C100.115 36.5623 99.9344 36.5543 99.8073 36.5366C99.6802 36.5189 99.5254 36.4483 99.3462 36.3214C99.167 36.1961 99.0236 36.0066 98.9193 35.7545L95.3997 27.3587H97.5082H97.5066ZM92.8024 32.3371H89.405C88.7548 32.3371 88.4289 32.7659 88.4289 33.625C88.4289 34.4842 88.7548 34.913 89.405 34.913H92.2793C92.628 34.913 92.8024 34.7412 92.8024 34.3975V32.3371ZM87.0016 27.3587H92.2451C93.0924 27.3587 93.7377 27.6044 94.1792 28.0974C94.6208 28.5888 94.8408 29.236 94.8408 30.0374V34.913C94.8408 35.9424 94.3177 36.4579 93.2733 36.4579H88.6212C87.0879 36.4579 86.3221 35.5136 86.3221 33.625C86.3221 32.7434 86.5143 32.0512 86.8973 31.547C87.2802 31.0427 87.8554 30.7922 88.6212 30.7922H92.8024V30.2092C92.8024 29.3388 92.3722 28.9036 91.5135 28.9036H87.0016V27.3587ZM81.0443 36.4579V30.7922C81.0443 29.5909 81.3523 28.7173 81.9682 28.1745C82.5841 27.6301 83.5194 27.3587 84.7725 27.3587H86.1494V28.9036H85.2955C84.4938 28.9036 83.9252 29.0979 83.5879 29.4865C83.2506 29.8752 83.0827 30.4886 83.0827 31.3237V36.4579H81.0443ZM76.5145 36.4579H74.2153V26.2426H69.459V24.4391H81.2871V26.2426H76.5145V36.4579Z" fill="white"/>
<path d="M128.865 19.6567L133.485 8.81022C133.706 8.29311 133.96 7.93659 134.246 7.74066C134.531 7.54474 134.948 7.44678 135.497 7.44678C136.046 7.44678 136.432 7.54795 136.731 7.74869C137.029 7.94944 137.288 8.30274 137.509 8.80861L142.129 19.6551H139.696L138.437 16.6022H132.54L131.298 19.6551H128.865V19.6567ZM135.147 10.0677L133.134 14.9818H137.842L135.847 10.0677C135.719 9.73363 135.603 9.56822 135.497 9.56822C135.391 9.56822 135.275 9.73524 135.147 10.0677ZM142.601 19.6567V18.1054H147.816C148.049 18.1054 148.251 18.0363 148.419 17.8982C148.588 17.7601 148.673 17.5529 148.673 17.2767C148.673 17.092 148.639 16.9346 148.568 16.803C148.498 16.6713 148.381 16.5621 148.218 16.4753C148.055 16.3886 147.915 16.326 147.798 16.2858C147.68 16.2457 147.495 16.1943 147.237 16.1301C146.981 16.0674 146.812 16.0241 146.73 16L144.946 15.5166C143.99 15.2629 143.34 14.9336 142.996 14.5257C142.652 14.1178 142.479 13.5622 142.479 12.862C142.479 12.0349 142.689 11.4359 143.11 11.0682C143.53 10.7004 144.206 10.5157 145.14 10.5157H149.587C150.019 10.5157 150.372 10.8626 150.372 11.2898V11.2946C150.372 11.7202 150.02 12.0687 149.587 12.0687H145.455C145.104 12.0687 144.853 12.1265 144.702 12.2405C144.55 12.3561 144.474 12.5745 144.474 12.8957C144.474 13.1366 144.558 13.3406 144.728 13.5076C144.897 13.6746 145.06 13.787 145.218 13.8432C145.376 13.901 145.613 13.9749 145.927 14.068L147.922 14.6205C148.331 14.7361 148.645 14.8309 148.867 14.9047C149.088 14.9802 149.342 15.0894 149.628 15.2324C149.913 15.3753 150.129 15.5343 150.274 15.7061C150.419 15.8779 150.545 16.1028 150.651 16.379C150.755 16.6552 150.809 16.9716 150.809 17.3281C150.809 18.0861 150.639 18.6642 150.302 19.0609C149.963 19.4576 149.375 19.6551 148.534 19.6551H142.603L142.601 19.6567ZM156.127 10.5173H161.394C162.246 10.5173 162.893 10.7646 163.336 11.2593C163.779 11.7539 164.001 12.4027 164.001 13.2073V18.1054C164.001 19.1396 163.476 19.6567 162.427 19.6567H157.755C156.215 19.6567 155.446 18.7076 155.446 16.811C155.446 15.9261 155.639 15.2307 156.023 14.7249C156.408 14.219 156.986 13.9669 157.755 13.9669H161.954V13.3807C161.954 12.5071 161.522 12.0703 160.659 12.0703H156.127V10.5189V10.5173ZM161.954 15.5182H158.542C157.889 15.5182 157.563 15.9486 157.563 16.811C157.563 17.6734 157.889 18.1038 158.542 18.1038H161.43C161.78 18.1038 161.954 17.9319 161.954 17.5867V15.5166V15.5182ZM152.068 19.6567V10.5173H154.115V19.6567H152.068Z" fill="white"/>
<path d="M122.207 19.6566H124.276V15.4668H124.482L124.736 15.2114L124.482 14.9529H124.271L124.263 12.947H124.319L124.539 12.7142L124.319 12.5022H124.254L124.216 7.6314H124.319L124.514 7.43547L124.332 7.25079L124.384 7.01954L124.374 6.90712C124.374 6.85412 124.374 6.65659 124.133 6.46549C123.884 6.25672 123.748 6.17642 123.631 6.05437L123.669 6.03189L123.559 5.96925L123.348 5.72676L123.33 5.54689L123.447 5.4682L123.321 5.38309L123.304 5.23052L123.354 5.18716L123.304 5.15023L123.294 5.04102L123.291 4.99124L123.33 4.95591L123.282 4.93021L123.266 4.66523L123.243 4.63954L123.261 4.62509L123.253 4.61384L123.261 4.59136L123.243 4.30872L123.212 4.59136L123.23 4.62027L123.212 4.62669L123.23 4.64114L123.212 4.66684L123.194 4.93182L123.152 4.95751L123.194 4.98803L123.183 5.04423L123.176 5.16468L123.116 5.19037L123.168 5.23373L123.159 5.35739L123.033 5.47302L123.15 5.58062L123.132 5.73157L122.916 5.9821L122.808 6.0367L122.847 6.05919C122.725 6.18124 122.598 6.26153 122.35 6.47031C122.106 6.66141 122.106 6.85894 122.106 6.91194L122.096 7.02435L122.147 7.25561L121.961 7.44029L122.161 7.63621H122.256L122.226 12.507H122.161L121.94 12.719L122.161 12.9519H122.226L122.205 14.9577H122.005L121.738 15.2162L122.005 15.4716H122.205V19.6615L122.207 19.6566ZM79.7649 19.6566H74.6549C73.6398 19.6566 72.7827 19.5105 72.0821 19.2166C71.3814 18.9227 70.8453 18.4923 70.4722 17.9238C70.099 17.3553 69.8367 16.7258 69.6852 16.0353C69.5336 15.3447 69.457 14.5401 69.457 13.6215C69.457 12.7029 69.5336 11.8968 69.6852 11.2078C69.8367 10.5173 70.099 9.88934 70.4722 9.31924C70.8453 8.75073 71.3814 8.31874 72.0821 8.02646C72.7827 7.73257 73.6398 7.58643 74.6549 7.58643H79.5726V9.39793H75.7402C74.2476 9.39793 73.2227 9.69342 72.6687 10.286C72.1146 10.8786 71.8376 11.9899 71.8376 13.6231C71.8376 15.2564 72.1146 16.3677 72.6687 16.9603C73.2227 17.5529 74.246 17.8484 75.7402 17.8484H79.7649V19.6599V19.6566ZM89.1081 19.6566H83.9639C83.2405 19.6566 82.6425 19.5587 82.1699 19.3628C81.6974 19.1668 81.3389 18.8601 81.0945 18.441C80.8501 18.0218 80.6839 17.5529 80.5959 17.0358C80.5079 16.5186 80.4639 15.8634 80.4639 15.0701C80.4639 13.3003 80.8045 12.0814 81.4872 11.4134C82.1699 10.7469 83.3219 10.4129 84.9432 10.4129C86.3902 10.4129 87.4949 10.6746 88.2592 11.1982C89.0234 11.7217 89.4046 12.6676 89.4046 14.0343C89.4046 15.1841 88.9256 15.759 87.9691 15.759H82.5805C82.5805 16.5524 82.7125 17.1417 82.9749 17.5272C83.2372 17.9126 83.7717 18.1053 84.5766 18.1053H89.1081V19.6566ZM82.5822 14.2077H86.8334C87.1365 14.2077 87.288 14.0294 87.288 13.6729C87.288 13.1092 87.0631 12.6837 86.615 12.3962C86.1653 12.1087 85.6097 11.9658 84.9432 11.9658C84.0796 11.9658 83.4702 12.1409 83.115 12.4926C82.7598 12.8427 82.5805 13.4144 82.5805 14.2077H82.5822ZM90.7359 19.6566V12.0686C90.7359 11.0344 91.2606 10.5173 92.3099 10.5173H95.5639C96.7078 10.5173 97.5942 10.7533 98.2232 11.2239C98.8538 11.696 99.1683 12.5006 99.1683 13.6376V19.6566H97.1217V14.1724C97.1217 13.4593 96.9701 12.931 96.6671 12.5857C96.364 12.2404 95.8686 12.0686 95.1794 12.0686H93.3072C92.9568 12.0686 92.7825 12.2404 92.7825 12.5857V19.6566H90.7359ZM102.934 7.97507C102.981 7.97507 103.02 8.18866 103.032 8.46809H102.838C102.848 8.18866 102.887 7.97507 102.936 7.97507H102.934ZM102.549 7.72775C102.642 7.72775 102.714 8.05055 102.727 8.46809H102.372C102.385 8.05215 102.456 7.72775 102.549 7.72775ZM102 7.72775C102.093 7.72775 102.165 8.05055 102.176 8.46809H101.823C101.837 8.05215 101.907 7.72775 102 7.72775ZM101.52 8.46809C101.529 8.18866 101.567 7.97507 101.617 7.97507C101.668 7.97507 101.704 8.18866 101.713 8.46809H101.521H101.52ZM101.687 9.11046H102.864C103.069 8.91454 103.296 8.89527 103.296 8.89527L103.278 8.46809H103.079V7.54146C103.283 7.51256 103.415 7.47723 103.415 7.47723C103.415 7.47723 103.327 7.45635 103.188 7.43066L103.138 7.12713H103.033C102.942 6.89748 102.75 6.75134 102.611 6.67587L102.703 6.65178L102.572 6.61163L102.432 6.59878L102.38 6.58754L102.354 6.21978L102.408 6.05116L102.328 5.85844L102.382 5.77654L102.316 5.69303L102.282 5.2514L102.276 5.34133L102.269 5.2514L102.236 5.69303L102.168 5.77654L102.223 5.85684L102.144 6.05116L102.196 6.21978L102.17 6.58754L102.118 6.59878L101.979 6.61163L101.85 6.65178L101.942 6.67587C101.803 6.75134 101.611 6.89748 101.523 7.12713H101.415L101.366 7.43066C101.225 7.45635 101.137 7.47723 101.137 7.47723C101.137 7.47723 101.27 7.51256 101.472 7.54146V8.46809H101.275L101.254 8.89527C101.254 8.89527 101.482 8.91454 101.687 9.11046ZM105.94 19.6583H104.663C103.555 19.6583 102.709 19.4286 102.126 18.9677C101.542 18.5084 101.251 17.744 101.251 16.6744V12.0702H99.9732V10.5189H101.251V9.11207H103.297V10.5189H105.94V12.0702H103.297V16.2601C103.297 16.9266 103.472 17.4019 103.822 17.6829C104.172 17.964 104.708 18.1053 105.432 18.1053H105.939V19.6566L105.94 19.6583ZM106.745 19.6583V13.9668C106.745 12.7592 107.055 11.8823 107.672 11.3363C108.29 10.7903 109.23 10.5173 110.49 10.5173H111.871V12.0686H111.014C110.209 12.0686 109.637 12.2645 109.3 12.6548C108.961 13.045 108.793 13.6601 108.793 14.5V19.6566H106.747L106.745 19.6583ZM112.73 10.5189H117.996C118.849 10.5189 119.496 10.7662 119.939 11.2608C120.382 11.7554 120.604 12.4042 120.604 13.2088V18.1069C120.604 19.1411 120.079 19.6583 119.03 19.6583H114.358C112.818 19.6583 112.049 18.7091 112.049 16.8125C112.049 15.9277 112.241 15.2323 112.626 14.7264C113.01 14.2206 113.589 13.9684 114.358 13.9684H118.557V13.3823C118.557 12.5086 118.125 12.0718 117.262 12.0718H112.73V10.5205V10.5189ZM118.557 15.5198H115.145C114.492 15.5198 114.166 15.9501 114.166 16.8125C114.166 17.6749 114.492 18.1053 115.145 18.1053H118.032C118.383 18.1053 118.557 17.9335 118.557 17.5882V15.5181V15.5198Z" fill="white"/>
<path fill-rule="evenodd" clip-rule="evenodd" d="M153.09 7.36963C153.655 7.36963 154.113 7.8209 154.113 8.37816C154.113 8.93542 153.655 9.38668 153.09 9.38668C152.524 9.38668 152.066 8.93542 152.066 8.37816C152.066 7.8209 152.524 7.36963 153.09 7.36963Z" fill="white"/>
<path fill-rule="evenodd" clip-rule="evenodd" d="M0 0L31.8132 6.8445C31.8132 6.8445 39.8073 8.1967 45.3783 14.7232C50.9494 21.2481 65.6453 40.9048 65.6453 40.9048C65.6453 40.9048 55.067 45.5202 47.1544 45.122C39.2418 44.7237 34.3959 41.3817 34.3959 41.3817C34.3959 41.3817 27.5327 36.9253 24.6257 32.9458C21.7188 28.9663 21.1534 28.1713 21.1534 28.1713L58.8245 32.2392L16.8224 22.292L0 0Z" fill="white"/>
<path fill-rule="evenodd" clip-rule="evenodd" d="M29.1532 25.2131L58.8253 32.2391L21.1543 28.1713L29.1532 25.2131Z" fill="white"/>
<path fill-rule="evenodd" clip-rule="evenodd" d="M0 0L58.8261 32.2392L16.824 22.292L0 0Z" fill="url(#paint0_linear_214_10710)"/>
</g>
<defs>
<linearGradient id="paint0_linear_214_10710" x1="39.2695" y1="7.78879" x2="29.705" y2="24.6908" gradientUnits="userSpaceOnUse">
<stop stop-color="#333333"/>
<stop offset="1" stop-color="#333333" stop-opacity="0"/>
</linearGradient>
<clipPath id="clip0_214_10710">
<rect width="164" height="45.1461" fill="white"/>
</clipPath>
</defs>
</svg>
