<?xml version="1.0" encoding="utf-8"?><svg viewBox="0 0 270 75" xmlns="http://www.w3.org/2000/svg" xmlns:xlink="http://www.w3.org/1999/xlink"><style>:root>svg{display:none}:root>svg:target{display:block}</style><svg viewBox="0 0 16 8" id="arrow-down" xmlns="http://www.w3.org/2000/svg"><path d="M1 1l6.22 5.33a1.2 1.2 0 001.561 0L15 1"/></svg><svg viewBox="0 0 40 41" id="benefits-1" xmlns="http://www.w3.org/2000/svg"><path d="M31.918 41l3.192-3.272-6.422-21.264 8.238-8.444S41.714 3.113 39.34.68c-2.377-2.437-7.165 2.47-7.165 2.47l-8.238 8.444-20.744-6.58L0 8.285l17.553 9.851-5.725 5.868-6.99.2-3.191 3.271 8.327 3.298 3.22 8.537 3.191-3.271.195-7.164 5.725-5.868L31.918 41z"/></svg><svg viewBox="0 0 43 36" id="benefits-2" xmlns="http://www.w3.org/2000/svg"><path fill-rule="evenodd" clip-rule="evenodd" d="M0 9.771C0 4.375 4.253 0 9.5 0h24C38.747 0 43 4.375 43 9.771v2.516c0 1.164-.789 2.006-1.642 2.308C39.984 15.083 39 16.425 39 18c0 1.575.984 2.917 2.358 3.405.853.302 1.642 1.144 1.642 2.308v2.516C43 31.625 38.747 36 33.5 36h-24C4.253 36 0 31.625 0 26.229v-2.516c0-1.164.789-2.006 1.642-2.308C3.016 20.917 4 19.575 4 18c0-1.575-.984-2.917-2.358-3.405C.789 14.293 0 13.451 0 12.287V9.771zm22.298 1.087a.983.983 0 00-1.596 0l-1.98 2.698c-.12.163-.285.286-.472.352l-3.107 1.104c-.627.223-.873 1.002-.493 1.562l1.882 2.771c.114.168.177.366.18.57l.061 3.38c.012.683.656 1.164 1.291.965l3.145-.985c.19-.06.392-.06.582 0l3.145.985c.635.2 1.279-.282 1.29-.965l.062-3.38c.003-.204.066-.402.18-.57l1.882-2.771c.38-.56.134-1.339-.493-1.562l-3.107-1.104a1.002 1.002 0 01-.471-.352l-1.981-2.698z"/></svg><svg viewBox="0 0 34 36" id="benefits-3" xmlns="http://www.w3.org/2000/svg"><path fill-rule="evenodd" clip-rule="evenodd" d="M32.111 20.842v9.474a5.693 5.693 0 01-1.66 4.02A5.658 5.658 0 0126.444 36H18.89V20.842h13.22zm-17 0V36H7.556a5.658 5.658 0 01-4.007-1.665 5.693 5.693 0 01-1.66-4.02v-9.473H15.11zM11.333 0A7.517 7.517 0 0117 2.565 7.538 7.538 0 0122.667 0h.944a2.834 2.834 0 012.834 2.842v.947a7.565 7.565 0 01-1.011 3.79h4.788c1.002 0 1.963.4 2.672 1.11A3.795 3.795 0 0134 11.369v3.789c0 .69-.183 1.338-.506 1.895H18.889v-5.685c0-.502-.2-.984-.553-1.34a1.886 1.886 0 00-2.672 0 1.898 1.898 0 00-.553 1.34v5.685H.506A3.78 3.78 0 010 15.158v-3.79a3.8 3.8 0 011.106-2.68 3.772 3.772 0 012.672-1.11h4.788a7.563 7.563 0 01-1.01-3.789v-.947c0-.754.298-1.477.83-2.01A2.829 2.829 0 0110.388 0h.944zm0 3.79c0 1.005.398 1.968 1.107 2.679.708.71 1.67 1.11 2.671 1.11a3.795 3.795 0 00-1.106-2.68 3.772 3.772 0 00-2.672-1.11zm11.334 0a3.773 3.773 0 00-2.672 1.11 3.795 3.795 0 00-1.106 2.679c1.002 0 1.963-.4 2.671-1.11a3.795 3.795 0 001.107-2.68z"/></svg><svg viewBox="0 0 52 30" id="big-arrow" xmlns="http://www.w3.org/2000/svg"><path d="M37.57 27.48l10.254-10.253a3.114 3.114 0 000-4.404L37.571 2.57m9.341 12.456H3.317"/></svg><svg viewBox="0 0 11 11" id="bus" xmlns="http://www.w3.org/2000/svg"><path d="M11 3.266v1.718c0 .285-.23.516-.516.516h-.171v3.61a.516.516 0 01-.516.515h-.172v.86c0 .284-.23.515-.516.515H8.08a.516.516 0 01-.517-.516v-.859H3.438v.86c0 .284-.23.515-.515.515H1.89a.516.516 0 01-.516-.516v-.859h-.172a.516.516 0 01-.516-.516V5.5h-.17A.516.516 0 010 4.984V3.266c0-.285.23-.516.516-.516h.171V1.719C.688.769 2.842 0 5.5 0s4.813.77 4.813 1.719V2.75h.171c.285 0 .516.23.516.516zM2.406 6.875a.86.86 0 100 1.719.86.86 0 000-1.719zm6.188 0a.86.86 0 100 1.719.86.86 0 000-1.719zm.687-1.203V2.578a.516.516 0 00-.515-.515H2.234a.516.516 0 00-.515.515v3.094c0 .285.23.516.515.516h6.532a.516.516 0 00.515-.516z"/></svg><svg viewBox="0 0 20 22" id="date" xmlns="http://www.w3.org/2000/svg"><path opacity=".5" d="M19 7.5v8a5 5 0 01-5 5H6a5 5 0 01-5-5v-8m18 0a5 5 0 00-5-5H6a5 5 0 00-5 5m18 0H1M14.5 1v3m-9-3v3m-1 7.5h1m4 0h1m4 0h1m-11 4h1m4 0h1m4 0h1"/></svg><svg viewBox="0 0 20 20" id="fb" xmlns="http://www.w3.org/2000/svg"><path d="M19.52 1.076V18.44c0 .597-.484 1.076-1.077 1.076h-4.975V11.96h2.535l.38-2.945h-2.92V7.133c0-.854.236-1.434 1.46-1.434h1.56V3.063a20.975 20.975 0 00-2.275-.118c-2.248 0-3.79 1.373-3.79 3.896v2.174H7.873v2.945h2.545v7.56H1.076A1.078 1.078 0 010 18.443V1.076C0 .484.484 0 1.076 0H18.44c.597 0 1.08.484 1.08 1.076z"/></svg><svg viewBox="0 0 134 35" id="footer-logo" xmlns="http://www.w3.org/2000/svg"><g clip-path="url(#aia)"><path d="M56.015 34.931h-1.466v-6.716h-3.033v-1.184h7.542v1.184h-3.043v6.716zm2.887 0v-3.724c0-.79.2-1.365.589-1.726.388-.35.99-.53 1.79-.53h.878v1.016h-.544c-.511 0-.879.125-1.09.383-.211.259-.322.655-.322 1.208v3.375h-1.3v-.002zM62.7 28.95h3.344c.544 0 .956.158 1.233.485.277.327.423.744.423 1.276v3.205c0 .677-.333 1.015-1 1.015h-2.965c-.977 0-1.467-.621-1.467-1.862 0-.575.123-1.038.367-1.366.244-.327.611-.496 1.1-.496H66.4v-.384c0-.575-.277-.857-.823-.857H62.7V28.95zm3.7 3.273h-2.166c-.41 0-.622.281-.622.846s.211.847.622.847h1.832c.222 0 .333-.113.333-.338v-1.355h.002zm2.999-3.274l1.656 4.435c.055.159.11.238.156.238.045 0 .1-.08.156-.238l1.644-4.435h1.344l-2.243 5.52a.802.802 0 01-.267.372c-.111.08-.212.136-.29.146-.077.011-.199.011-.344.011-.146 0-.267 0-.345-.01-.078-.011-.178-.067-.29-.147a.733.733 0 01-.276-.373l-2.243-5.519H69.4h-.002zm10.62 5.982h-3.267c-.456 0-.833-.067-1.133-.192a1.366 1.366 0 01-.69-.609 2.681 2.681 0 01-.311-.913 8.117 8.117 0 01-.088-1.287c0-1.163.221-1.951.654-2.393.434-.442 1.156-.655 2.188-.655.922 0 1.621.17 2.112.509.478.35.722.971.722 1.862 0 .757-.3 1.128-.911 1.128h-3.421c0 .52.088.903.256 1.151.166.26.5.384 1.012.384h2.877v1.015zm-4.143-3.567h2.698c.19 0 .29-.113.29-.35 0-.374-.144-.645-.423-.837-.29-.191-.645-.281-1.067-.281-.544 0-.934.113-1.155.338-.234.237-.345.609-.345 1.128l.002.002zm5.175 3.567v-7.9h1.3v7.9h-1.3zM84.199 22.429l6.547-15.85c.314-.757.674-1.276 1.08-1.563.405-.285.995-.428 1.773-.428.778 0 1.327.148 1.748.442.42.294.79.811 1.103 1.55l6.548 15.85h-3.447l-1.786-4.459h-8.358l-1.761 4.46h-3.447v-.002zm8.903-14.011L90.249 15.6h6.672l-2.827-7.182c-.181-.487-.346-.73-.495-.73-.149 0-.314.243-.495.73h-.002zm10.564 14.01V20.16h7.392c.33 0 .616-.1.855-.302.239-.203.36-.504.36-.907 0-.269-.05-.5-.148-.693-.099-.194-.266-.352-.496-.479a4.079 4.079 0 00-.596-.276 10.388 10.388 0 00-.793-.227 35.203 35.203 0 01-.719-.189l-2.529-.705c-1.356-.37-2.278-.852-2.764-1.449-.489-.596-.731-1.406-.731-2.432 0-1.209.298-2.084.892-2.62.596-.537 1.553-.807 2.877-.807h6.303c.613 0 1.112.51 1.112 1.13v.007c0 .623-.5 1.13-1.112 1.13h-5.856c-.496 0-.853.085-1.067.252-.215.167-.322.488-.322.957 0 .352.119.651.36.894.239.243.471.407.694.491.224.085.558.194 1.005.328l2.827.806c.578.167 1.025.306 1.339.415.313.11.674.27 1.079.479.405.21.71.442.918.693.206.252.385.58.534.982.149.403.223.866.223 1.385 0 1.11-.239 1.954-.719 2.533s-1.315.87-2.505.87h-8.407l-.006.003zm19.172-13.354h7.466c1.207 0 2.125.361 2.752 1.085.629.721.942 1.671.942 2.847v7.156c0 1.512-.745 2.269-2.233 2.269h-6.622c-2.182 0-3.273-1.387-3.273-4.157 0-1.294.273-2.31.817-3.049.546-.739 1.365-1.108 2.455-1.108h5.951v-.857c0-1.276-.611-1.915-1.836-1.915h-6.423V9.076l.004-.002zm8.259 7.308h-4.836c-.927 0-1.39.63-1.39 1.89 0 1.26.463 1.89 1.39 1.89h4.091c.495 0 .745-.252.745-.757v-3.023zm-14.013 6.047V9.073h2.901v13.354h-2.901v.002zm-42.321-.001h2.933v-6.122h.291l.362-.373-.362-.377h-.298l-.01-2.93h.078l.311-.34-.311-.31h-.094L77.61 4.86h.145l.279-.287-.258-.27.074-.34-.014-.164c0-.078 0-.366-.34-.646-.354-.305-.545-.423-.711-.602l.054-.032-.154-.091-.302-.354-.026-.262.168-.115-.178-.125-.026-.223.073-.063-.073-.055-.014-.16-.005-.074.055-.051-.067-.039-.023-.387-.033-.037.026-.021-.012-.018.012-.033-.026-.412-.043.412.026.042-.026.009.026.021-.026.037-.024.387-.061.039.06.044-.015.08-.009.177-.084.039.072.063-.014.18-.178.168.168.157-.026.22-.307.366-.152.08.057.031c-.171.18-.353.297-.705.602-.346.28-.346.568-.346.646l-.014.163.073.34-.264.271.283.287h.135l-.042 7.117h-.092l-.315.31.315.34h.092l-.03 2.93h-.283l-.378.377.378.373h.284l-.004 6.122h-.002zm-60.154 0H7.367c-1.438 0-2.654-.214-3.646-.642-.993-.428-1.753-1.058-2.282-1.89a8.332 8.332 0 01-1.115-2.76c-.215-1.008-.322-2.184-.322-3.528 0-1.345.107-2.52.322-3.527a8.347 8.347 0 011.115-2.76c.529-.832 1.29-1.46 2.282-1.89.992-.428 2.206-.642 3.646-.642h6.968v2.645H8.903c-2.116 0-3.566.433-4.353 1.297-.784.866-1.177 2.49-1.177 4.877 0 2.386.393 4.01 1.177 4.877.785.865 2.237 1.297 4.353 1.297h5.704v2.645l.002.002zm13.244 0h-7.29c-1.026 0-1.873-.142-2.543-.427a3.1 3.1 0 01-1.526-1.348 6.173 6.173 0 01-.707-2.054c-.125-.757-.185-1.714-.185-2.872 0-2.588.483-4.369 1.451-5.342.967-.975 2.6-1.46 4.899-1.46 2.05 0 3.616.381 4.699 1.145 1.083.764 1.625 2.146 1.625 4.145 0 1.68-.677 2.52-2.034 2.52h-7.639c0 1.16.186 2.02.558 2.584.373.563 1.128.845 2.27.845h6.422v2.268-.003zm-9.251-7.962h6.026c.43 0 .644-.26.644-.78 0-.825-.319-1.446-.954-1.866-.636-.421-1.426-.63-2.368-.63-1.223 0-2.087.257-2.591.769s-.757 1.348-.757 2.508zm11.557 7.963V11.34c0-1.512.745-2.269 2.232-2.269h4.613c1.62 0 2.877.345 3.77 1.033.891.688 1.338 1.866 1.338 3.53v8.793h-2.901v-8.013c0-1.041-.215-1.814-.644-2.317-.43-.504-1.133-.757-2.108-.757h-2.654c-.496 0-.745.252-.745.757v10.33h-2.901zm17.29-17.07c.068 0 .123.311.137.72h-.276c.014-.407.07-.72.137-.72h.002zm-.546-.363c.132 0 .234.472.252 1.08h-.503c.018-.608.121-1.08.251-1.08zm-.777 0c.131 0 .232.472.25 1.08h-.502c.021-.608.12-1.08.253-1.08h-.001zm-.683 1.08c.014-.406.068-.719.137-.719.07 0 .121.312.135.72h-.274.002zm.24.939h1.666c.29-.287.611-.315.611-.315l-.024-.625h-.282V4.722c.287-.043.476-.095.476-.095s-.125-.032-.322-.069l-.073-.443h-.15c-.127-.335-.4-.55-.597-.66l.13-.034-.185-.06-.198-.02-.074-.015-.036-.537.076-.246-.114-.282.077-.12-.093-.12-.049-.647-.008.132-.009-.132-.047.646-.097.122.08.118-.114.283.074.246-.036.537-.075.016-.197.02-.184.06.13.033c-.196.11-.47.325-.594.66h-.153l-.069.443c-.2.037-.325.069-.325.069s.188.053.474.095v1.353h-.279l-.03.625s.323.028.616.315h.003zm6.027 15.412H49.9c-1.571 0-2.77-.336-3.596-1.009-.826-.672-1.24-1.79-1.24-3.35v-6.729h-1.81V9.071h1.81V7.015h2.901V9.07h3.745v2.268h-3.745v6.123c0 .975.248 1.667.745 2.079.495.411 1.256.617 2.281.617h.72v2.269zm1.142 0V14.11c0-1.763.438-3.045 1.314-3.844.877-.797 2.207-1.196 3.993-1.196h1.96v2.268h-1.217c-1.141 0-1.95.285-2.43.857-.48.572-.719 1.47-.719 2.697v7.534h-2.901zm8.482-13.355H68.8c1.207 0 2.125.361 2.752 1.084.629.722.942 1.672.942 2.848v7.156c0 1.512-.744 2.268-2.232 2.268H63.64c-2.183 0-3.274-1.386-3.274-4.157 0-1.293.272-2.309.817-3.048.546-.739 1.364-1.108 2.455-1.108h5.952v-.857c0-1.276-.612-1.915-1.837-1.915h-6.422V9.074l.003-.002zm8.259 7.308h-4.836c-.927 0-1.39.63-1.39 1.89 0 1.26.463 1.89 1.39 1.89h4.091c.496 0 .745-.252.745-.757V16.38z"/><path fill-rule="evenodd" clip-rule="evenodd" d="M118.537 4.474c.802 0 1.452.66 1.452 1.474 0 .815-.65 1.475-1.452 1.475-.802 0-1.452-.66-1.452-1.475 0-.814.65-1.474 1.452-1.474z"/></g><defs><clipPath id="aia"><path d="M0 0h134v35H0z"/></clipPath></defs></svg><svg viewBox="0 0 30 30" id="hot-1" xmlns="http://www.w3.org/2000/svg"><circle cx="15" cy="15" r="15"/><path d="M15 22.5c-.14 0-.28-.01-.42-.027a13.617 13.617 0 01-2.06-6.848h11.2c.015-.207.031-.414.031-.625A8.75 8.75 0 1015 23.75V22.5zm7.469-8.125h-3.742a15.204 15.204 0 00-1.72-6.594 7.508 7.508 0 015.462 6.594zm-7.05-6.848a13.616 13.616 0 012.06 6.848h-4.958c.064-2.425.776-4.79 2.06-6.848.279-.036.56-.036.839 0h-.001zm-2.426.254a15.205 15.205 0 00-1.72 6.594H7.531a7.508 7.508 0 015.463-6.594zm-5.462 7.844h3.742c.067 2.3.656 4.554 1.72 6.594a7.51 7.51 0 01-5.462-6.594z"/><path fill-rule="evenodd" clip-rule="evenodd" d="M20.625 20.625l3.125 1.25v-1.25l-3.125-1.563V17.5a.624.624 0 10-1.25 0v1.563l-3.125 1.562v1.25l3.125-1.25v2.188l-1.25.937v.625L20 23.75l1.875.625v-.625l-1.25-.938v-2.187z"/></svg><svg viewBox="0 0 30 30" id="hot-2" xmlns="http://www.w3.org/2000/svg"><circle cx="15" cy="15" r="15"/><path d="M17.5 17.25h-3.75a1.875 1.875 0 00-1.875 1.875v1.25h1.25v-1.25a.624.624 0 01.625-.625h3.75a.624.624 0 01.625.625v1.25h1.25v-1.25A1.875 1.875 0 0017.5 17.25zm-1.875-.625a2.5 2.5 0 100-5 2.5 2.5 0 000 5zm0-3.75a1.25 1.25 0 110 2.5 1.25 1.25 0 010-2.5z"/><path d="M15.625 24.75c-4.825 0-8.75-3.925-8.75-8.75h1.25c0 4.136 3.364 7.5 7.5 7.5a7.479 7.479 0 007.138-5.192l1.19.384a8.725 8.725 0 01-8.328 6.058zm8.75-8.75h-1.25c0-4.136-3.364-7.5-7.5-7.5V7.25c4.825 0 8.75 3.925 8.75 8.75zM8.75 14.75l-1.337-.633a3.14 3.14 0 01-1.788-2.825V7.25h6.25v4.043a3.138 3.138 0 01-1.788 2.825l-1.337.632zM6.875 8.5v2.793a1.881 1.881 0 001.073 1.693l.802.38.802-.378a1.882 1.882 0 001.073-1.695V8.5h-3.75z"/></svg><svg viewBox="0 0 30 30" id="hot-3" xmlns="http://www.w3.org/2000/svg"><circle cx="15" cy="15" r="15"/><path fill-rule="evenodd" clip-rule="evenodd" d="M14.406 6.204c.187-.575 1.001-.575 1.188 0l1.651 5.08a.625.625 0 00.595.433h5.341c.606 0 .858.774.368 1.13l-4.322 3.14a.625.625 0 00-.227.699l1.65 5.08c.188.576-.471 1.055-.961.7l-4.322-3.14a.625.625 0 00-.734 0l-4.322 3.14c-.49.355-1.149-.124-.962-.7l1.65-5.08a.625.625 0 00-.226-.699l-4.322-3.14c-.49-.356-.238-1.13.368-1.13h5.342c.27 0 .51-.175.594-.432l1.65-5.08zm-.462 5.467L15 8.42l1.056 3.251a1.875 1.875 0 001.784 1.296h3.418l-2.766 2.009a1.875 1.875 0 00-.68 2.096l1.056 3.251-2.766-2.01a1.875 1.875 0 00-2.204 0l-2.766 2.01 1.057-3.25a1.875 1.875 0 00-.681-2.097l-2.766-2.01h3.418c.813 0 1.533-.522 1.784-1.295z"/></svg><svg viewBox="0 0 30 30" id="hot-4" xmlns="http://www.w3.org/2000/svg"><circle cx="15" cy="15" r="15"/><path d="M14.5 8a.5.5 0 01.492.41L15 8.5v3a2.5 2.5 0 01-2 2.45v7.55a.5.5 0 01-.992.09L12 21.5v-7.55a2.5 2.5 0 01-1.994-2.28L10 11.5v-3a.5.5 0 01.992-.09L11 8.5v3a1.5 1.5 0 001 1.415V8.5a.5.5 0 01.992-.09L13 8.5v4.414c.538-.19.935-.678.993-1.265l.007-.15v-3a.5.5 0 01.5-.5zm5 0a.5.5 0 01.492.41L20 8.5v13a.5.5 0 01-.992.09L19 21.5V16h-1.5a.5.5 0 01-.492-.41L17 15.5v-5A2.5 2.5 0 0119.5 8zm-.5 7V9.085c-.538.19-.935.678-.993 1.266L18 10.5V15h1z"/></svg><svg viewBox="0 0 30 30" id="hot-5" xmlns="http://www.w3.org/2000/svg"><circle cx="15" cy="15" r="15"/><path d="M15 18.594A3.594 3.594 0 0018.594 15v-5a3.594 3.594 0 00-7.188 0v5A3.594 3.594 0 0015 18.594zM12.344 10a2.656 2.656 0 115.312 0v5a2.657 2.657 0 01-5.312 0v-5zm8.71 5.68a6.086 6.086 0 01-5.585 5.398v2.047a.47.47 0 01-.938 0v-2.047a6.086 6.086 0 01-5.586-5.398.469.469 0 11.93-.11 5.156 5.156 0 0010.25 0 .469.469 0 11.93.11z"/></svg><svg viewBox="0 0 30 30" id="hot-6" xmlns="http://www.w3.org/2000/svg"><circle cx="15" cy="15" r="15"/><path d="M18.438 17.188c.345 0 .625.28.625.625a3.438 3.438 0 01-3.438 3.437.625.625 0 110-1.25 2.188 2.188 0 002.188-2.188c0-.345.28-.625.625-.625z"/><path fill-rule="evenodd" clip-rule="evenodd" d="M15 6.56a1.094 1.094 0 00-.83.382c-.63.735-1.97 2.375-3.157 4.309-1.17 1.907-2.263 4.211-2.263 6.249 0 1.859.588 3.436 1.701 4.549 1.113 1.113 2.69 1.701 4.549 1.701 1.859 0 3.436-.588 4.549-1.701 1.113-1.113 1.701-2.69 1.701-4.549 0-2.038-1.093-4.342-2.263-6.25C17.8 9.318 16.46 7.678 15.83 6.943a1.097 1.097 0 00-.83-.382zm-2.922 5.345c1.07-1.742 2.275-3.244 2.922-4.01.647.766 1.853 2.268 2.922 4.01C19.076 13.785 20 15.834 20 17.5c0 1.593-.499 2.829-1.335 3.665-.836.836-2.072 1.335-3.665 1.335s-2.829-.499-3.665-1.335C10.499 20.329 10 19.093 10 17.5c0-1.666.924-3.714 2.078-5.595z"/></svg><svg viewBox="0 0 21 20" id="inst" xmlns="http://www.w3.org/2000/svg"><path d="M10.624 4.755A4.997 4.997 0 005.62 9.76a4.997 4.997 0 005.004 5.004A4.997 4.997 0 0015.63 9.76a4.997 4.997 0 00-5.005-5.005zm0 8.258A3.26 3.26 0 017.371 9.76a3.257 3.257 0 013.253-3.254 3.257 3.257 0 013.254 3.254 3.26 3.26 0 01-3.254 3.253zm6.377-8.462c0 .648-.523 1.167-1.167 1.167A1.167 1.167 0 1117 4.55zm3.315 1.184c-.074-1.563-.432-2.949-1.577-4.09C17.598.505 16.213.147 14.649.07c-1.612-.092-6.442-.092-8.054 0-1.559.074-2.944.43-4.09 1.572C1.36 2.782 1.008 4.167.93 5.731c-.092 1.611-.092 6.442 0 8.053.074 1.564.431 2.95 1.577 4.09 1.145 1.142 2.526 1.499 4.09 1.577 1.611.091 6.441.091 8.053 0 1.564-.074 2.949-.431 4.09-1.577 1.141-1.14 1.498-2.526 1.577-4.09.091-1.611.091-6.437 0-8.049zm-2.082 9.779a3.293 3.293 0 01-1.856 1.855c-1.285.51-4.334.392-5.754.392s-4.473.113-5.753-.392a3.294 3.294 0 01-1.856-1.855c-.51-1.285-.392-4.334-.392-5.754s-.113-4.473.392-5.754a3.294 3.294 0 011.856-1.855c1.285-.51 4.333-.392 5.753-.392s4.474-.114 5.754.392c.854.34 1.512.997 1.856 1.855.51 1.285.392 4.334.392 5.754s.117 4.473-.392 5.754z"/></svg><svg viewBox="0 0 43 36" id="jobs-icon" xmlns="http://www.w3.org/2000/svg"><path fill-rule="evenodd" clip-rule="evenodd" d="M0 9.771C0 4.375 4.253 0 9.5 0h24C38.747 0 43 4.375 43 9.771v2.516c0 1.164-.789 2.006-1.642 2.308C39.984 15.083 39 16.425 39 18c0 1.575.984 2.917 2.358 3.405.853.302 1.642 1.144 1.642 2.308v2.516C43 31.625 38.747 36 33.5 36h-24C4.253 36 0 31.625 0 26.229v-2.516c0-1.164.789-2.006 1.642-2.308C3.016 20.917 4 19.575 4 18c0-1.575-.984-2.917-2.358-3.405C.789 14.293 0 13.451 0 12.287V9.771zm22.298 1.087a.983.983 0 00-1.596 0l-1.98 2.698c-.12.163-.285.286-.472.352l-3.107 1.104c-.627.223-.873 1.002-.493 1.562l1.882 2.771c.114.168.177.366.18.57l.061 3.38c.012.683.656 1.164 1.291.965l3.145-.985c.19-.06.392-.06.582 0l3.145.985c.635.2 1.279-.282 1.29-.965l.062-3.38c.003-.204.066-.402.18-.57l1.882-2.771c.38-.56.134-1.339-.493-1.562l-3.107-1.104a1.002 1.002 0 01-.471-.352l-1.981-2.698z"/></svg><svg viewBox="0 0 14 16" id="location" xmlns="http://www.w3.org/2000/svg"><path d="M7 16l-4.95-4.686A6.526 6.526 0 01.135 7.92a6.3 6.3 0 01.398-3.829A6.72 6.72 0 013.11 1.117 7.283 7.283 0 017 0c1.384 0 2.738.389 3.889 1.117a6.72 6.72 0 012.578 2.974 6.3 6.3 0 01.399 3.83 6.527 6.527 0 01-1.916 3.393L7 16zm3.85-5.728a5.076 5.076 0 001.49-2.639 4.9 4.9 0 00-.31-2.978 5.227 5.227 0 00-2.005-2.313A5.665 5.665 0 007 1.473c-1.077 0-2.13.302-3.025.869A5.227 5.227 0 001.97 4.655a4.9 4.9 0 00-.31 2.978 5.08 5.08 0 001.49 2.64L7 13.917l3.85-3.646zM7 8.1c-.413 0-.808-.155-1.1-.431a1.434 1.434 0 01-.456-1.042c0-.39.164-.765.456-1.041A1.601 1.601 0 017 5.155c.413 0 .808.155 1.1.431.292.276.456.65.456 1.041 0 .391-.164.766-.456 1.042A1.601 1.601 0 017 8.1z"/></svg><svg viewBox="0 0 270 75" id="logo-1" xmlns="http://www.w3.org/2000/svg"><g clip-path="url(#asa)"><path d="M190.613 60.567V40.6h3.356v19.967h-3.356zm-13.364-9.013h6.969c.496 0 .746-.293.746-.883 0-.93-.368-1.635-1.106-2.11-.735-.475-1.649-.712-2.738-.712-1.414 0-2.415.29-2.997.87-.582.578-.874 1.526-.874 2.838v-.003zm10.698 9.013h-8.432c-1.185 0-2.165-.163-2.94-.486-.775-.323-1.363-.832-1.762-1.526a6.854 6.854 0 01-.818-2.324c-.143-.856-.215-1.94-.215-3.252 0-2.93.558-4.944 1.677-6.045 1.118-1.102 3.007-1.654 5.663-1.654 2.371 0 4.182.432 5.435 1.296 1.252.865 1.877 2.43 1.877 4.693 0 1.902-.783 2.852-2.352 2.852h-8.834c0 1.313.214 2.286.646 2.924.43.638 1.304.955 2.624.955h7.428v2.567h.003zM160.528 45.45l4.273 11.21c.153.401.287.601.403.601.115 0 .249-.2.402-.6l4.244-11.21h3.471l-5.794 13.947c-.172.419-.403.731-.69.942-.287.208-.536.328-.745.357-.21.03-.507.043-.888.043s-.679-.013-.888-.043c-.21-.029-.464-.146-.76-.357-.295-.208-.531-.523-.702-.942l-5.795-13.948h3.471-.002zm-7.745 8.27h-5.593c-1.071 0-1.607.713-1.607 2.14 0 1.428.536 2.14 1.607 2.14h4.732c.574 0 .861-.285.861-.856V53.72zm-9.55-8.27h8.633c1.395 0 2.457.408 3.184 1.228.727.816 1.089 1.891 1.089 3.222V58c0 1.71-.861 2.567-2.581 2.567h-7.659c-2.524 0-3.785-1.57-3.785-4.706 0-1.465.317-2.615.947-3.453.631-.837 1.578-1.254 2.838-1.254h6.884v-.968c0-1.446-.708-2.17-2.122-2.17h-7.428V45.45zm-9.808 15.117v-9.413c0-1.995.507-3.447 1.521-4.348 1.014-.905 2.554-1.356 4.617-1.356h2.267v2.567h-1.406c-1.32 0-2.256.323-2.811.968-.555.646-.832 1.665-.832 3.052v8.53h-3.356zm-7.457 0h-3.786v-16.97h-7.83V40.6h19.473v2.996h-7.857v16.97zM212.155 32.655l7.605-18.019c.365-.859.783-1.451 1.253-1.777.469-.325 1.156-.488 2.06-.488.904 0 1.54.168 2.031.502.491.333.917.92 1.282 1.76l7.605 18.02h-4.005l-2.074-5.072h-9.708l-2.044 5.071h-4.005v.003zm10.341-15.93l-3.313 8.164h7.75l-3.283-8.164c-.212-.555-.403-.83-.577-.83-.174 0-.365.278-.577.83zm12.273 15.93v-2.577h8.585c.383 0 .716-.115.992-.344.279-.23.419-.574.419-1.033a1.67 1.67 0 00-.172-.787c-.115-.219-.309-.4-.577-.544a4.85 4.85 0 00-.692-.315 12.42 12.42 0 00-.923-.259 23.27 23.27 0 01-.834-.216l-2.938-.803c-1.574-.421-2.645-.968-3.211-1.646-.566-.678-.85-1.6-.85-2.764 0-1.374.346-2.369 1.038-2.98.692-.61 1.806-.918 3.343-.918h7.321c.71 0 1.293.577 1.293 1.286v.008c0 .707-.58 1.286-1.293 1.286h-6.804c-.576 0-.989.096-1.239.286-.249.192-.375.555-.375 1.088 0 .4.139.74.418 1.017.279.277.547.464.807.557.261.096.65.22 1.167.374l3.284.918c.673.192 1.191.35 1.556.472.365.125.783.307 1.253.544.469.238.826.502 1.065.787.238.286.445.659.619 1.118.172.459.261.984.261 1.577 0 1.259-.279 2.22-.835 2.878-.558.66-1.526.987-2.91.987h-9.765l-.003.003zm22.269-15.183h8.67c1.403 0 2.468.41 3.197 1.233.73.821 1.095 1.9 1.095 3.236v8.137c0 1.718-.864 2.577-2.591 2.577h-7.691c-2.536 0-3.802-1.577-3.802-4.727 0-1.47.317-2.626.95-3.466.633-.84 1.585-1.26 2.852-1.26h6.913v-.973c0-1.451-.711-2.177-2.133-2.177h-7.46v-2.58zm9.593 8.308h-5.618c-1.076 0-1.612.715-1.612 2.148 0 1.432.536 2.147 1.612 2.147h4.754c.577 0 .864-.285.864-.859v-3.439.003zm-16.276 6.875V17.472h3.37v15.183h-3.37zm-49.161 0h3.406v-6.96h.338l.419-.425-.419-.43h-.346l-.013-3.331h.091l.362-.387-.362-.352h-.107l-.062-8.092h.169l.322-.326-.3-.306.086-.385-.017-.186c0-.088 0-.417-.397-.734-.41-.347-.633-.48-.826-.683l.062-.037-.18-.104-.349-.403-.029-.3.193-.13-.207-.141-.029-.254.083-.072-.083-.061-.016-.181-.005-.083.064-.059-.078-.043-.027-.44-.037-.042.029-.024-.013-.02.013-.036-.029-.47-.051.47.029.048-.029.01.029.024-.029.043-.03.44-.07.043.07.05-.019.094-.01.2-.1.043.086.072-.016.205-.206.192.193.179-.03.25-.356.417-.178.09.065.038c-.201.203-.411.336-.818.683-.403.317-.403.646-.403.734l-.016.186.083.385-.306.306.33.326h.156l-.048 8.092h-.108l-.364.352.364.387h.108l-.035 3.332h-.33l-.44.43.44.424h.33v6.96l.003-.008zm-69.875 0h-8.412c-1.672 0-3.083-.243-4.236-.73-1.154-.49-2.036-1.204-2.651-2.149a9.335 9.335 0 01-1.295-3.137c-.25-1.147-.376-2.484-.376-4.01 0-1.526.126-2.865.376-4.01a9.359 9.359 0 011.295-3.137c.615-.945 1.497-1.662 2.651-2.148 1.153-.488 2.564-.73 4.236-.73h8.096v3.009h-6.31c-2.457 0-4.144.49-5.056 1.475-.912.984-1.368 2.83-1.368 5.544 0 2.713.456 4.56 1.368 5.544.912.984 2.596 1.475 5.056 1.475h6.626v3.01-.006zm15.383 0h-8.469c-1.192 0-2.176-.163-2.954-.488-.778-.326-1.368-.835-1.771-1.532a6.916 6.916 0 01-.82-2.334c-.145-.859-.218-1.947-.218-3.265 0-2.94.561-4.965 1.685-6.075 1.124-1.107 3.021-1.662 5.69-1.662 2.382 0 4.201.434 5.459 1.304 1.258.87 1.886 2.441 1.886 4.712 0 1.91-.789 2.865-2.364 2.865h-8.871c0 1.318.217 2.297.649 2.938.432.64 1.312.96 2.637.96h7.461v2.577zm-10.744-9.052h6.999c.499 0 .748-.296.748-.889 0-.936-.37-1.643-1.108-2.12-.74-.478-1.655-.716-2.752-.716-1.422 0-2.425.291-3.01.876-.585.581-.88 1.531-.88 2.849h.003zm13.423 9.052V20.05c0-1.718.864-2.577 2.592-2.577h5.357c1.883 0 3.343.392 4.378 1.174 1.038.784 1.556 2.12 1.556 4.01v10h-3.369v-9.112c0-1.184-.25-2.062-.749-2.636-.499-.573-1.314-.859-2.449-.859h-3.082c-.577 0-.864.286-.864.86v11.746h-3.37zm20.083-19.406c.077 0 .142.355.161.819h-.32c.016-.464.081-.82.161-.82h-.002zm-.634-.411c.153 0 .271.536.293 1.23h-.585c.022-.691.14-1.23.292-1.23zm-.904 0c.153 0 .271.536.29 1.23h-.582c.024-.691.14-1.23.292-1.23zm-.791 1.23c.016-.464.078-.82.161-.82s.142.356.158.82h-.319zm.276 1.067h1.937c.338-.325.711-.357.711-.357l-.029-.71h-.328v-1.54c.336-.048.553-.106.553-.106s-.145-.035-.373-.078l-.083-.504h-.172c-.15-.381-.467-.624-.695-.75l.151-.04-.215-.066-.231-.022-.086-.018-.042-.611.088-.28-.131-.32.088-.137-.107-.138-.056-.734-.011.15-.011-.15-.054.734-.112.138.091.134-.132.323.086.28-.043.61-.085.02-.228.02-.212.067.15.04c-.228.126-.545.369-.69.75h-.177l-.08.504a8.068 8.068 0 00-.378.078s.22.058.552.106v1.54h-.324l-.035.71s.375.031.713.357zm7.002 17.523h-2.103c-1.824 0-3.217-.382-4.177-1.147-.96-.764-1.441-2.033-1.441-3.81v-7.65h-2.103v-2.576h2.103v-2.337h3.37v2.337h4.351v2.577h-4.351v6.96c0 1.108.287 1.897.864 2.364.576.467 1.459.702 2.65.702h.834v2.577l.003.003zm1.325 0v-9.455c0-2.006.51-3.463 1.527-4.37 1.016-.907 2.564-1.36 4.638-1.36h2.275v2.576h-1.411c-1.326 0-2.267.326-2.822.974-.558.648-.835 1.67-.835 3.066v8.566h-3.369l-.003.003zm9.853-15.183h8.671c1.403 0 2.468.41 3.197 1.232.73.822 1.095 1.9 1.095 3.236v8.138c0 1.718-.864 2.577-2.592 2.577h-7.691c-2.535 0-3.801-1.577-3.801-4.728 0-1.47.317-2.625.95-3.465.633-.84 1.585-1.26 2.851-1.26h6.914v-.973c0-1.452-.711-2.177-2.133-2.177h-7.461v-2.58zm9.594 8.308h-5.618c-1.076 0-1.612.715-1.612 2.147 0 1.433.536 2.148 1.612 2.148h4.754c.576 0 .864-.286.864-.86V25.78v.003z"/><path fill-rule="evenodd" clip-rule="evenodd" d="M252.037 12.243c.931 0 1.685.75 1.685 1.675a1.68 1.68 0 01-1.685 1.676 1.68 1.68 0 01-1.684-1.676c0-.925.753-1.675 1.684-1.675zM0 0l52.375 11.37s13.161 2.247 22.333 13.09c9.172 10.839 33.367 43.494 33.367 43.494s-17.416 7.668-30.443 7.006c-13.026-.662-21.005-6.214-21.005-6.214s-11.299-7.403-16.085-14.014c-4.785-6.611-5.716-7.932-5.716-7.932l62.02 6.758-69.15-16.525L0 0z"/><path fill-rule="evenodd" clip-rule="evenodd" d="M47.997 41.886l48.85 11.672L34.829 46.8l13.17-4.914zM0 0l96.848 53.558-69.15-16.525L0 0z"/></g><defs><linearGradient id="asb" x1="64.651" y1="12.939" x2="48.688" y2="40.895" gradientUnits="userSpaceOnUse"><stop stop-color="#333"/><stop offset="1" stop-color="#333" stop-opacity="0"/></linearGradient><clipPath id="asa"><path d="M0 0h270v75H0z"/></clipPath></defs></svg><svg viewBox="0 0 270 69" id="logo-2" xmlns="http://www.w3.org/2000/svg"><g clip-path="url(#ata)"><path d="M112.865 68.865h-2.952v-13.24h-6.112V53.29h15.197v2.335h-6.133v13.24zm5.818 0v-7.342c0-1.558.402-2.692 1.187-3.404.782-.69 1.993-1.044 3.605-1.044h1.77v2.002h-1.096c-1.03 0-1.769.246-2.195.756-.426.51-.649 1.291-.649 2.38v6.655h-2.618l-.004-.003zm7.654-11.793h6.736c1.096 0 1.927.312 2.485.957.559.645.852 1.468.852 2.516v6.318c0 1.335-.67 2.002-2.014 2.002h-5.975c-1.968 0-2.956-1.225-2.956-3.671 0-1.135.248-2.047.74-2.693.492-.645 1.232-.978 2.216-.978h5.371v-.756c0-1.135-.558-1.69-1.657-1.69h-5.798V57.07zm7.455 6.453h-4.366c-.827 0-1.253.555-1.253 1.669 0 1.114.426 1.669 1.253 1.669h3.693c.447 0 .67-.222.67-.666v-2.672h.003zm6.042-6.453l3.336 8.743c.112.312.224.468.315.468.09 0 .202-.156.314-.468l3.312-8.743h2.708l-4.519 10.88c-.133.333-.315.58-.538.736-.223.156-.426.267-.583.288-.157.02-.401.02-.694.02-.294 0-.538 0-.695-.02-.157-.021-.359-.132-.583-.288-.248-.156-.426-.4-.558-.736l-4.52-10.88h2.708-.003zm21.398 11.793h-6.582c-.918 0-1.679-.132-2.283-.378a2.733 2.733 0 01-1.389-1.201 5.198 5.198 0 01-.628-1.8c-.112-.667-.178-1.514-.178-2.537 0-2.293.447-3.848 1.319-4.719.873-.87 2.328-1.29 4.408-1.29 1.857 0 3.267.333 4.255 1.002.963.69 1.455 1.916 1.455 3.671 0 1.492-.604 2.224-1.836 2.224h-6.893c0 1.024.178 1.78.517 2.27.335.513 1.008.756 2.038.756h5.797v2.002zm-8.348-7.033h5.437c.381 0 .583-.222.583-.69 0-.736-.289-1.27-.851-1.649-.583-.378-1.299-.555-2.15-.555-1.096 0-1.882.222-2.328.666-.471.469-.695 1.2-.695 2.224l.004.004zm10.428 7.033V53.29h2.618v15.575h-2.618zM169.654 44.217l13.193-31.248c.632-1.492 1.358-2.515 2.174-3.08.817-.563 2.007-.844 3.574-.844 1.567 0 2.674.292 3.522.871.848.58 1.591 1.6 2.223 3.057l13.193 31.247h-6.946l-3.598-8.792h-16.84l-3.55 8.792h-6.945v-.003zm17.939-27.622l-5.748 14.16h13.444l-5.696-14.16c-.366-.961-.698-1.44-.998-1.44-.3 0-.632.479-.998 1.44h-.004zm21.287 27.622v-4.473h14.893c.666 0 1.242-.197 1.724-.596.481-.4.726-.993.726-1.787 0-.531-.101-.986-.3-1.367-.199-.382-.534-.694-.999-.944a8.362 8.362 0 00-1.2-.545 21.536 21.536 0 00-1.599-.447 72.382 72.382 0 01-1.448-.372l-5.096-1.39c-2.733-.73-4.589-1.68-5.57-2.856-.984-1.177-1.473-2.773-1.473-4.795 0-2.384.6-4.108 1.797-5.167 1.201-1.058 3.131-1.589 5.798-1.589h12.7a2.239 2.239 0 012.241 2.228v.014a2.24 2.24 0 01-2.241 2.227h-11.8c-.998 0-1.717.167-2.15.496-.433.33-.649.961-.649 1.888 0 .694.241 1.284.726 1.762.482.48.949.802 1.399.968.451.167 1.124.382 2.025.646l5.696 1.589c1.165.33 2.066.604 2.698.819.631.215 1.357.53 2.174.943.817.413 1.431.871 1.85 1.367.415.497.775 1.142 1.075 1.936.3.795.45 1.707.45 2.73 0 2.187-.482 3.852-1.448 4.994-.967 1.141-2.649 1.714-5.047 1.714h-16.941l-.011.007zm38.629-26.328h15.043c2.433 0 4.282.712 5.546 2.138 1.267 1.422 1.899 3.296 1.899 5.613v14.108c0 2.98-1.501 4.472-4.499 4.472h-13.343c-4.398 0-6.597-2.734-6.597-8.195 0-2.55.552-4.552 1.648-6.01 1.099-1.457 2.75-2.185 4.945-2.185h11.992v-1.69c0-2.515-1.232-3.775-3.699-3.775h-12.942v-4.472l.007-.004zm16.641 14.406h-9.744c-1.867 0-2.799 1.242-2.799 3.726 0 2.485.932 3.727 2.799 3.727h8.244c.998 0 1.5-.496 1.5-1.492v-5.96zm-28.235 11.922V17.886h5.846v26.327h-5.846v.004zm-85.272 0h5.909V32.146h.586l.73-.736-.73-.742h-.6l-.021-5.777h.157l.628-.67-.628-.61h-.188l-.109-14.031h.294l.561-.566-.52-.534.15-.67-.027-.323c0-.152 0-.721-.688-1.273-.712-.6-1.096-.833-1.431-1.187l.108-.062-.31-.18-.608-.698-.052-.517.338-.225-.359-.247-.052-.44.146-.125-.146-.108-.028-.315-.011-.146.112-.1-.136-.077-.046-.763-.066-.073.052-.042-.024-.035.024-.066-.052-.811-.087.811.052.084-.052.017.052.042-.052.073-.049.763-.122.076.122.087-.031.16-.018.346-.171.077.147.125-.028.354-.36.333.339.308-.052.434-.618.722-.307.156.115.062c-.346.354-.712.587-1.421 1.187-.698.552-.698 1.12-.698 1.273l-.028.323.147.67-.531.534.569.566h.273l-.084 14.03h-.185l-.635.611.635.67h.185l-.06 5.777h-.572l-.761.742.761.736h.572l-.007 12.07h-.003zm-121.207 0H14.844c-2.897 0-5.347-.424-7.347-1.267S3.965 40.865 2.9 39.224a16.227 16.227 0 01-2.247-5.44c-.433-1.989-.65-4.306-.65-6.957 0-2.65.217-4.969.65-6.953a16.257 16.257 0 012.247-5.44c1.065-1.642 2.6-2.88 4.597-3.727 2-.843 4.446-1.266 7.347-1.266h14.04v5.215H17.94c-4.264 0-7.186.853-8.77 2.557-1.581 1.707-2.374 4.91-2.374 9.614 0 4.705.793 7.907 2.374 9.614 1.58 1.707 4.505 2.557 8.77 2.557h11.494v5.215l.003.004zm26.686 0h-14.69c-2.066 0-3.773-.281-5.124-.843-1.35-.563-2.373-1.45-3.075-2.658-.698-1.208-1.172-2.557-1.423-4.05-.252-1.491-.374-3.379-.374-5.662 0-5.1.974-8.611 2.925-10.53 1.947-1.922 5.239-2.88 9.87-2.88 4.132 0 7.288.753 9.469 2.26 2.181 1.505 3.274 4.229 3.274 8.17 0 3.313-1.365 4.968-4.098 4.968H37.484c0 2.287.374 3.984 1.124 5.094.75 1.11 2.272 1.665 4.573 1.665h12.941v4.473-.007zM37.481 28.52h12.142c.866 0 1.299-.513 1.299-1.54 0-1.624-.642-2.849-1.923-3.678-1.281-.83-2.873-1.242-4.772-1.242-2.464 0-4.205.506-5.22 1.516-1.016 1.01-1.526 2.658-1.526 4.944zm23.286 15.697V22.358c0-2.98 1.501-4.472 4.5-4.472h9.294c3.263 0 5.797.68 7.594 2.037 1.798 1.356 2.698 3.677 2.698 6.956v17.338h-5.846V28.42c0-2.055-.433-3.578-1.298-4.57-.866-.992-2.283-1.492-4.248-1.492h-5.347c-.998 0-1.5.496-1.5 1.492v20.367h-5.847zm34.84-33.652c.136 0 .247.614.275 1.419h-.555c.028-.802.14-1.42.276-1.42h.003zm-1.1-.715c.265 0 .471.93.506 2.13h-1.012c.035-1.2.244-2.13.506-2.13zm-1.567 0c.265 0 .468.93.502 2.13h-1.008c.042-1.2.24-2.13.51-2.13h-.004zm-1.375 2.13c.028-.8.136-1.418.276-1.418s.244.614.272 1.418h-.552.004zm.481 1.85h3.358c.586-.566 1.232-.621 1.232-.621l-.049-1.232h-.569V9.31c.58-.083.96-.187.96-.187s-.251-.063-.65-.136l-.146-.874h-.3c-.258-.66-.81-1.083-1.204-1.301l.262-.066-.374-.118-.398-.038-.15-.031-.073-1.059.154-.485-.23-.556.156-.236-.188-.239-.098-1.273-.017.26-.018-.26-.094 1.273-.195.24.16.232-.23.559.15.485-.074 1.059-.15.03-.397.039-.37.118.261.066c-.394.218-.945.642-1.197 1.3h-.307l-.14.875c-.404.073-.656.136-.656.136s.38.104.957.187v2.668h-.562l-.06 1.232s.65.055 1.24.62h.006zm12.146 30.383h-3.647c-3.166 0-5.58-.663-7.246-1.988C91.635 40.9 90.8 38.696 90.8 35.62V22.355h-3.647v-4.473H90.8V13.83h5.847v4.052h7.545v4.473h-7.545v12.07c0 1.923.499 3.286 1.5 4.098.998.812 2.531 1.218 4.597 1.218h1.448v4.472zm2.3 0V27.82c0-3.476.883-6.002 2.649-7.577 1.766-1.572 4.447-2.36 8.045-2.36h3.948v4.473h-2.451c-2.3 0-3.93.562-4.896 1.69-.967 1.127-1.449 2.896-1.449 5.315v14.853h-5.846zm17.092-26.327h15.042c2.433 0 4.283.711 5.546 2.137 1.267 1.423 1.899 3.296 1.899 5.614v14.107c0 2.98-1.501 4.473-4.499 4.473h-13.343c-4.398 0-6.596-2.734-6.596-8.196 0-2.55.548-4.552 1.647-6.009 1.099-1.457 2.747-2.186 4.946-2.186h11.992v-1.69c0-2.515-1.232-3.774-3.7-3.774h-12.941v-4.473l.007-.003zm16.641 14.406h-9.745c-1.867 0-2.799 1.242-2.799 3.726s.932 3.726 2.799 3.726h8.244c.998 0 1.501-.496 1.501-1.492v-5.96z"/><path fill-rule="evenodd" clip-rule="evenodd" d="M238.843 8.82a2.916 2.916 0 012.925 2.907 2.916 2.916 0 01-2.925 2.908 2.916 2.916 0 01-2.925-2.908 2.916 2.916 0 012.925-2.907z"/></g><defs><clipPath id="ata"><path d="M0 0h270v69H0z"/></clipPath></defs></svg><svg viewBox="0 0 34 34" id="minus" xmlns="http://www.w3.org/2000/svg"><path d="M0 10C0 4.477 4.477 0 10 0h14c5.523 0 10 4.477 10 10v14c0 5.523-4.477 10-10 10H10C4.477 34 0 29.523 0 24V10z"/><path d="M7 16h20v2H7v-2z"/></svg><svg viewBox="0 0 22 17" id="person" xmlns="http://www.w3.org/2000/svg"><path opacity=".5" d="M16.32 7.903a2.675 2.675 0 000-5.35m2.929 11.452l.262.037A1.305 1.305 0 0021 12.752v-.88c0-.575-.362-1.088-.904-1.282a11.23 11.23 0 00-1.65-.45M5.682 7.902a2.675 2.675 0 010-5.35M2.75 14.005l-.262.037A1.305 1.305 0 011 12.752v-.88c0-.575.362-1.088.903-1.282.54-.193 1.092-.343 1.65-.45M7.81 4.403a3.404 3.404 0 106.808 0 3.404 3.404 0 00-6.809 0zm7.132 11.171l.334.048a1.66 1.66 0 001.895-1.644v-1.12c0-.732-.46-1.385-1.15-1.631a14.293 14.293 0 00-9.615 0c-.69.246-1.15.9-1.15 1.631v1.12a1.66 1.66 0 001.896 1.644l.333-.048a26.363 26.363 0 017.457 0z"/></svg><svg viewBox="0 0 10 10" id="phone" xmlns="http://www.w3.org/2000/svg"><path d="M.583 10a.565.565 0 01-.416-.167A.565.565 0 010 9.417v-2.25c0-.13.042-.243.125-.34a.565.565 0 01.32-.188L2.36 6.25a.899.899 0 01.396.034.78.78 0 01.326.188L4.39 7.778c.704-.426 1.347-.93 1.93-1.514a9.226 9.226 0 001.459-1.875L6.444 3.028a.57.57 0 01-.16-.285 1.002 1.002 0 01-.006-.354l.36-1.945A.533.533 0 017.167 0h2.25c.167 0 .306.056.417.167.111.11.167.25.167.416a8.133 8.133 0 01-.799 3.493A10.58 10.58 0 017.09 7.09a10.583 10.583 0 01-3.013 2.111A8.136 8.136 0 01.583 10z"/></svg><svg viewBox="0 0 12 11" id="plane" xmlns="http://www.w3.org/2000/svg"><path d="M3.194 11h1.1l2.469-4.681h2.839s1.65 0 1.65-.819c0-.82-1.65-.82-1.65-.82h-2.84L4.295 0h-1.1l1.369 4.68H2.59L1.352 3.51h-1.1l.88 1.99-.88 1.99h1.1L2.59 6.318h1.973L3.194 11z"/></svg><svg viewBox="0 0 34 34" id="plus" xmlns="http://www.w3.org/2000/svg"><path d="M0 10C0 4.477 4.477 0 10 0h14c5.523 0 10 4.477 10 10v14c0 5.523-4.477 10-10 10H10C4.477 34 0 29.523 0 24V10z"/><path d="M7 16h20v2H7v-2z"/><path d="M16 27V7h2v20h-2z"/></svg><svg viewBox="0 0 34 36" id="present" xmlns="http://www.w3.org/2000/svg"><path fill-rule="evenodd" clip-rule="evenodd" d="M32.111 20.842v9.474a5.693 5.693 0 01-1.66 4.02A5.658 5.658 0 0126.444 36H18.89V20.842h13.22zm-17 0V36H7.556a5.658 5.658 0 01-4.007-1.665 5.693 5.693 0 01-1.66-4.02v-9.473H15.11zM11.333 0A7.517 7.517 0 0117 2.565 7.538 7.538 0 0122.667 0h.944a2.834 2.834 0 012.834 2.842v.947a7.565 7.565 0 01-1.011 3.79h4.788c1.002 0 1.963.4 2.672 1.11A3.795 3.795 0 0134 11.369v3.789c0 .69-.183 1.338-.506 1.895H18.889v-5.685c0-.502-.2-.984-.553-1.34a1.886 1.886 0 00-2.672 0 1.898 1.898 0 00-.553 1.34v5.685H.506A3.78 3.78 0 010 15.158v-3.79a3.8 3.8 0 011.106-2.68 3.772 3.772 0 012.672-1.11h4.788a7.563 7.563 0 01-1.01-3.789v-.947c0-.754.298-1.477.83-2.01A2.829 2.829 0 0110.388 0h.944zm0 3.79c0 1.005.398 1.968 1.107 2.679.708.71 1.67 1.11 2.671 1.11a3.795 3.795 0 00-1.106-2.68 3.772 3.772 0 00-2.672-1.11zm11.334 0a3.773 3.773 0 00-2.672 1.11 3.795 3.795 0 00-1.106 2.679c1.002 0 1.963-.4 2.671-1.11a3.795 3.795 0 001.107-2.68z"/></svg><svg viewBox="0 0 57 46" id="quotes-1" xmlns="http://www.w3.org/2000/svg"><path d="M18.601 21.512c2.215.992 3.942 2.48 5.182 4.465 1.24 1.984 1.86 4.329 1.86 7.035 0 3.878-1.195 7.035-3.587 9.47C19.664 44.827 16.608 46 12.888 46c-3.72 0-6.82-1.218-9.3-3.653C1.195 39.912 0 36.8 0 33.012c0-1.804.221-3.608.664-5.412.443-1.804 1.418-4.51 2.923-8.118L11.294 0h13.154L18.6 21.512zm31.357 0c2.215.992 3.942 2.48 5.182 4.465C56.38 27.96 57 30.306 57 33.011c0 3.878-1.196 7.035-3.587 9.47C51.02 44.827 47.965 46 44.245 46c-3.72 0-6.82-1.218-9.3-3.653-2.393-2.435-3.588-5.547-3.588-9.335 0-1.804.221-3.608.664-5.412.443-1.804 1.417-4.51 2.923-8.118L42.65 0h13.154l-5.846 21.512z"/></svg><svg viewBox="0 0 41 32" id="quotes-2" xmlns="http://www.w3.org/2000/svg"><path d="M27.62 17.035c-1.593-.69-2.835-1.725-3.727-3.106-.892-1.38-1.338-3.011-1.338-4.894 0-2.698.86-4.894 2.58-6.588C26.855.816 29.054 0 31.73 0c2.676 0 4.906.847 6.69 2.541C40.14 4.235 41 6.4 41 9.035c0 1.255-.16 2.51-.478 3.765-.318 1.255-1.02 3.137-2.102 5.647L32.876 32h-9.461l4.205-14.965zm-22.555 0c-1.593-.69-2.835-1.725-3.727-3.106C.446 12.55 0 10.918 0 9.035c0-2.698.86-4.894 2.58-6.588C4.3.816 6.5 0 9.175 0c2.676 0 4.906.847 6.69 2.541 1.72 1.694 2.58 3.859 2.58 6.494 0 1.255-.16 2.51-.478 3.765-.318 1.255-1.02 3.137-2.102 5.647L10.322 32H.86l4.205-14.965z"/></svg><svg viewBox="0 0 17 10" id="right-arrow" xmlns="http://www.w3.org/2000/svg"><path d="M12 9l3.293-3.293a1 1 0 000-1.414L12 1m3 4H1"/></svg><svg viewBox="0 0 6 12" id="right-small-arrow" xmlns="http://www.w3.org/2000/svg"><path d="M1 11l3.794-4.442a.86.86 0 000-1.116L1 1"/></svg><svg viewBox="0 0 89 35" id="share" xmlns="http://www.w3.org/2000/svg"><circle cx="71.245" cy="17.245" r="17.245"/><path d="M77.75 17l-5.25-5.25v3c-5.25.75-7.5 4.5-8.25 8.25 1.875-2.625 4.5-3.825 8.25-3.825v3.075L77.75 17z"/></svg><svg viewBox="0 0 33 32" id="slider-next" xmlns="http://www.w3.org/2000/svg"><path d="M2.118 18.107h23.655L15.438 28.391a2.117 2.117 0 00.685 3.449 2.117 2.117 0 002.302-.456L32.38 17.496a2.096 2.096 0 00.458-2.29 2.096 2.096 0 00-.458-.682L18.446.615A2.113 2.113 0 0016.145.16a2.112 2.112 0 00-1.143 1.137 2.092 2.092 0 00.458 2.29l10.313 10.305H2.118A2.119 2.119 0 000 16c0 1.159.953 2.107 2.118 2.107z"/></svg><svg viewBox="0 0 24 24" id="slider-prev" xmlns="http://www.w3.org/2000/svg"><path opacity=".2" d="M22.46 13.58H5.256l7.516 7.713c.6.617.6 1.628 0 2.245a1.5 1.5 0 01-2.172 0L.45 13.122a1.61 1.61 0 010-2.229L10.585.462a1.502 1.502 0 012.172 0 1.58 1.58 0 01.45 1.114 1.613 1.613 0 01-.45 1.114l-7.501 7.73H22.46c.847 0 1.54.71 1.54 1.58 0 .869-.693 1.58-1.54 1.58z"/></svg><svg viewBox="0 0 24 20" id="teleg" xmlns="http://www.w3.org/2000/svg"><path d="M23.934 1.777L20.42 18.341c-.265 1.17-.956 1.46-1.938.91l-5.351-3.944-2.583 2.484c-.286.285-.525.524-1.075.524l.384-5.45 9.919-8.963c.431-.384-.094-.597-.67-.213L6.845 11.41l-5.28-1.652c-1.148-.359-1.168-1.148.24-1.7L22.453.105c.956-.359 1.792.213 1.48 1.673z"/></svg><svg viewBox="0 0 31 31" id="telegram" xmlns="http://www.w3.org/2000/svg"><path d="M31 15.5C31 24.06 24.06 31 15.5 31 6.94 31 0 24.06 0 15.5 0 6.94 6.94 0 15.5 0 24.06 0 31 6.94 31 15.5z"/><path d="M20.863 9.136L8.46 14.032c-.499.228-.668.685-.12.933L11.52 16l7.694-4.867c.42-.306.85-.224.48.112l-6.608 6.124-.207 2.592c.192.4.544.402.769.203l1.828-1.77 3.13 2.4c.728.44 1.124.155 1.28-.652l2.054-9.954c.213-.994-.15-1.433-1.078-1.052z"/></svg><svg viewBox="0 0 2 64" id="tour-line" xmlns="http://www.w3.org/2000/svg"><path opacity=".5" d="M1 1v62"/></svg><svg viewBox="0 0 25 24" id="tour-next" xmlns="http://www.w3.org/2000/svg"><path d="M1.604 13.58h17.921l-7.83 7.713a1.576 1.576 0 00.52 2.587 1.619 1.619 0 001.743-.342l10.573-10.416A1.574 1.574 0 0025 12.008a1.552 1.552 0 00-.47-1.115L13.975.462A1.602 1.602 0 0012.843 0a1.62 1.62 0 00-1.131.462 1.574 1.574 0 00-.469 1.114 1.555 1.555 0 00.469 1.114l7.813 7.73H1.605C.721 10.42 0 11.13 0 12c0 .869.722 1.58 1.604 1.58z"/></svg><svg viewBox="0 0 25 24" id="tour-prev" xmlns="http://www.w3.org/2000/svg"><path d="M23.396 13.58H5.475l7.83 7.713a1.576 1.576 0 01-.52 2.587 1.619 1.619 0 01-1.743-.342L.469 13.122A1.574 1.574 0 010 12.008a1.554 1.554 0 01.47-1.115L11.025.462A1.602 1.602 0 0112.157 0a1.62 1.62 0 011.131.462 1.574 1.574 0 01.469 1.114 1.555 1.555 0 01-.469 1.114l-7.813 7.73h17.92c.883 0 1.605.71 1.605 1.58 0 .869-.722 1.58-1.604 1.58z"/></svg><svg viewBox="0 0 17 17" id="two-arrow" xmlns="http://www.w3.org/2000/svg"><path d="M4 16l-2.293-2.293a1 1 0 010-1.414L4 10m-2 3h12m-1-6l2.293-2.293a1 1 0 000-1.414L13 1m2 3H3"/></svg><svg viewBox="0 0 31 31" id="whatsApp" xmlns="http://www.w3.org/2000/svg"><path d="M31 15.5C31 24.06 24.06 31 15.5 31 6.94 31 0 24.06 0 15.5 0 6.94 6.94 0 15.5 0 24.06 0 31 6.94 31 15.5z"/><path fill-rule="evenodd" clip-rule="evenodd" d="M16 7.5a7.5 7.5 0 00-6.421 11.376l-.67 2.274a.757.757 0 00.941.94l2.274-.668A7.5 7.5 0 1016 7.5zm-1.697 9.197c1.518 1.517 2.966 1.717 3.477 1.736.778.028 1.536-.566 1.83-1.255a.522.522 0 00-.066-.527c-.41-.525-.966-.902-1.51-1.277a.533.533 0 00-.729.118l-.45.686a.172.172 0 01-.229.057c-.305-.174-.75-.471-1.07-.791a4.877 4.877 0 01-.754-1.03.17.17 0 01.05-.218l.693-.514a.534.534 0 00.09-.706c-.336-.492-.728-1.117-1.296-1.532a.52.52 0 00-.513-.056c-.69.296-1.287 1.053-1.258 1.832.019.512.219 1.96 1.736 3.477z"/></svg><svg viewBox="0 0 164 46" id="white-logo" xmlns="http://www.w3.org/2000/svg"><g clip-path="url(#boa)"><path d="M115.781 36.458V24.439h2.038v12.019h-2.038zm-8.118-5.425h4.233c.302 0 .453-.177.453-.532 0-.56-.223-.984-.671-1.27-.447-.286-1.002-.429-1.664-.429-.859 0-1.466.175-1.82.524-.354.348-.531.918-.531 1.709v-.002zm6.498 5.425h-5.121c-.72 0-1.315-.098-1.786-.292a2.146 2.146 0 01-1.071-.919 4.129 4.129 0 01-.497-1.399c-.086-.515-.13-1.167-.13-1.957 0-1.764.339-2.976 1.018-3.64.68-.663 1.827-.995 3.44-.995 1.441 0 2.54.26 3.301.78.761.52 1.141 1.463 1.141 2.825 0 1.145-.476 1.717-1.429 1.717h-5.366c0 .79.131 1.376.393 1.76.261.384.792.575 1.594.575h4.511v1.545h.002zm-16.654-9.1l2.595 6.749c.093.24.175.361.245.361s.151-.12.244-.361l2.578-6.748h2.108l-3.519 8.395a1.29 1.29 0 01-.419.567c-.174.126-.326.198-.453.216a4.205 4.205 0 01-.539.025c-.232 0-.413-.008-.54-.025-.127-.018-.282-.089-.46-.216a1.255 1.255 0 01-.428-.566l-3.52-8.396h2.11-.002zm-4.705 4.98h-3.397c-.65 0-.976.428-.976 1.287 0 .86.326 1.288.976 1.288h2.874c.349 0 .523-.172.523-.515v-2.06zm-5.8-4.98h5.243c.847 0 1.493.246 1.934.74.442.49.662 1.138.662 1.94v4.875c0 1.03-.523 1.545-1.568 1.545h-4.652c-1.533 0-2.299-.944-2.299-2.833 0-.882.192-1.574.575-2.078.383-.504.958-.755 1.724-.755h4.181v-.583c0-.87-.43-1.305-1.289-1.305h-4.511v-1.545zm-5.958 9.1v-5.666c0-1.201.308-2.075.924-2.618.616-.544 1.551-.815 2.804-.815h1.377v1.545h-.853c-.802 0-1.37.194-1.708.582-.337.39-.505 1.003-.505 1.838v5.134h-2.039zm-4.53 0h-2.299V26.243H69.46v-1.804h11.828v1.804h-4.773v10.215zm52.351-16.801l4.62-10.847c.221-.517.475-.873.761-1.07.285-.195.702-.293 1.251-.293.549 0 .935.101 1.234.302.298.2.557.554.778 1.06l4.62 10.846h-2.433l-1.259-3.053h-5.897l-1.242 3.053h-2.433v.002zm6.282-9.59l-2.013 4.915h4.708l-1.995-4.914c-.128-.334-.244-.5-.35-.5-.106 0-.222.167-.35.5zm7.454 9.59v-1.552h5.215a.922.922 0 00.603-.207c.169-.138.254-.345.254-.621a.983.983 0 00-.105-.474.81.81 0 00-.35-.328 2.99 2.99 0 00-.42-.19 7.686 7.686 0 00-.561-.155 14.57 14.57 0 01-.507-.13l-1.784-.483c-.956-.254-1.606-.583-1.95-.991-.344-.408-.517-.964-.517-1.664 0-.827.21-1.426.631-1.794.42-.368 1.096-.552 2.03-.552h4.447a.78.78 0 01.785.774v.005a.781.781 0 01-.785.774h-4.132c-.351 0-.602.057-.753.171-.152.116-.228.335-.228.656 0 .24.084.445.254.612.169.167.332.279.49.335.158.058.395.132.709.225l1.995.553c.409.115.723.21.945.284.221.075.475.184.761.327.285.143.501.302.646.474.145.172.271.397.377.673.104.276.158.593.158.95 0 .757-.17 1.335-.507 1.732-.339.397-.927.594-1.768.594h-5.931l-.002.002zm13.526-9.14h5.267c.852 0 1.499.248 1.942.742.443.495.665 1.144.665 1.948v4.898c0 1.035-.525 1.552-1.574 1.552h-4.672c-1.54 0-2.309-.95-2.309-2.846 0-.885.193-1.58.577-2.086.385-.506.963-.758 1.732-.758h4.199v-.586c0-.874-.432-1.31-1.295-1.31h-4.532v-1.554zm5.827 5.001h-3.412c-.653 0-.979.43-.979 1.293 0 .862.326 1.293.979 1.293h2.888c.35 0 .524-.172.524-.517v-2.07.001zm-9.886 4.139v-9.14h2.047v9.14h-2.047zm-29.861 0h2.069v-4.19h.206l.254-.256-.254-.258h-.211l-.008-2.006h.056l.22-.233-.22-.212h-.065l-.038-4.87h.103l.195-.197-.182-.184.052-.231-.01-.113c0-.053 0-.25-.241-.442-.249-.208-.385-.289-.502-.41l.038-.023-.11-.063-.211-.242-.018-.18.117-.079-.126-.085-.017-.152.05-.044-.05-.037-.01-.109-.003-.05.039-.035-.048-.026-.016-.265-.023-.025.018-.015-.008-.011.008-.023-.018-.282-.031.282.018.03-.018.006.018.014-.018.026-.018.265-.042.026.042.03-.011.056-.007.12-.06.026.052.044-.009.123-.126.116.117.108-.018.15-.216.251-.108.055.039.022c-.122.122-.249.203-.497.411-.244.191-.244.389-.244.442l-.01.112.051.232-.186.184.2.196h.095l-.03 4.871h-.065l-.221.212.221.233h.065l-.021 2.006h-.2l-.267.258.267.256h.2v4.19l.002-.005zm-42.442 0h-5.11c-1.015 0-1.872-.146-2.573-.44-.7-.294-1.237-.725-1.61-1.293a5.593 5.593 0 01-.787-1.889c-.151-.69-.228-1.495-.228-2.414 0-.918.077-1.724.228-2.413.152-.69.414-1.319.787-1.889.373-.568.91-1 1.61-1.293.7-.293 1.558-.44 2.573-.44h4.918v1.812H75.74c-1.492 0-2.517.295-3.071.888-.554.593-.831 1.704-.831 3.337 0 1.633.277 2.745.83 3.337.555.593 1.578.888 3.072.888h4.025v1.812-.003zm9.343 0h-5.144c-.724 0-1.322-.098-1.794-.294a2.163 2.163 0 01-1.076-.922 4.146 4.146 0 01-.498-1.405c-.088-.517-.132-1.173-.132-1.966 0-1.77.34-2.989 1.023-3.657.683-.666 1.835-1 3.456-1 1.447 0 2.552.262 3.316.785.764.524 1.146 1.47 1.146 2.836 0 1.15-.48 1.725-1.436 1.725h-5.388c0 .793.132 1.383.394 1.768.262.386.797.578 1.602.578h4.531v1.552zm-6.526-5.45h4.251c.303 0 .455-.178.455-.534 0-.564-.225-.99-.673-1.277-.45-.287-1.005-.43-1.672-.43-.863 0-1.473.175-1.828.527-.355.35-.534.921-.534 1.715h.001zm8.154 5.45v-7.588c0-1.035.525-1.552 1.574-1.552h3.254c1.144 0 2.03.236 2.66.707.63.472.944 1.277.944 2.414v6.019h-2.046v-5.485c0-.713-.152-1.241-.455-1.586-.303-.346-.798-.517-1.488-.517h-1.872c-.35 0-.525.171-.525.517v7.07h-2.046zm12.198-11.682c.047 0 .086.214.098.493h-.194c.01-.28.049-.493.098-.493h-.002zm-.385-.247c.093 0 .165.323.178.74h-.355c.013-.416.084-.74.177-.74zm-.549 0c.093 0 .165.323.176.74h-.353c.014-.416.084-.74.177-.74zm-.48.74c.009-.28.047-.493.097-.493.051 0 .087.214.096.493h-.193zm.167.642h1.177a.79.79 0 01.432-.215l-.018-.427h-.199v-.927c.204-.028.336-.064.336-.064s-.088-.02-.227-.046l-.05-.304h-.105a.925.925 0 00-.422-.451l.092-.024-.131-.04-.14-.013-.052-.011-.026-.368.054-.169-.08-.193.054-.081-.066-.084-.034-.442-.006.09-.007-.09-.033.442-.068.084.055.08-.079.194.052.169-.026.368-.052.01-.139.014-.129.04.092.024a.907.907 0 00-.419.451h-.108l-.049.304c-.141.025-.229.046-.229.046s.133.036.335.064v.927h-.197l-.021.427s.228.02.433.215zm4.253 10.548h-1.277c-1.108 0-1.954-.23-2.537-.69-.584-.46-.875-1.224-.875-2.294V12.07h-1.278v-1.55h1.278V9.112h2.046v1.407h2.643v1.551h-2.643v4.19c0 .667.175 1.142.525 1.423.35.281.886.422 1.61.422h.507v1.552l.001.001zm.805 0v-5.691c0-1.208.31-2.085.927-2.63.618-.547 1.558-.82 2.818-.82h1.381v1.552h-.857c-.805 0-1.377.195-1.714.586-.339.39-.507 1.005-.507 1.845v5.157h-2.046l-.002.001zm5.985-9.14h5.266c.853 0 1.5.248 1.943.743.443.494.665 1.143.665 1.948v4.898c0 1.034-.525 1.551-1.574 1.551h-4.672c-1.54 0-2.309-.949-2.309-2.846 0-.884.192-1.58.577-2.086.384-.505.963-.758 1.732-.758h4.199v-.586c0-.873-.432-1.31-1.295-1.31h-4.532v-1.553zm5.827 5.002h-3.412c-.653 0-.979.43-.979 1.293 0 .862.326 1.292.979 1.292h2.887c.351 0 .525-.172.525-.517v-2.07.002z"/><path fill-rule="evenodd" clip-rule="evenodd" d="M153.09 7.37c.565 0 1.023.45 1.023 1.008 0 .557-.458 1.009-1.023 1.009a1.016 1.016 0 01-1.024-1.009c0-.557.458-1.008 1.024-1.008zM0 0l31.813 6.845s7.994 1.352 13.565 7.878c5.571 6.525 20.267 26.182 20.267 26.182s-10.578 4.615-18.49 4.217c-7.913-.398-12.76-3.74-12.76-3.74s-6.862-4.457-9.77-8.436a724.274 724.274 0 01-3.472-4.775l37.671 4.068-42.002-9.947L0 0z"/><path fill-rule="evenodd" clip-rule="evenodd" d="M29.153 25.213l29.672 7.026-37.67-4.068 7.998-2.958z"/><path fill-rule="evenodd" clip-rule="evenodd" d="M0 0l58.826 32.24-42.002-9.948L0 0z"/></g><defs><linearGradient id="bob" x1="39.27" y1="7.789" x2="29.705" y2="24.691" gradientUnits="userSpaceOnUse"><stop stop-color="#333"/><stop offset="1" stop-color="#333" stop-opacity="0"/></linearGradient><clipPath id="boa"><path d="M0 0h164v45.146H0z"/></clipPath></defs></svg></svg>